<svg width="57" height="57" viewBox="0 0 57 57" fill="none" xmlns="http://www.w3.org/2000/svg">
<circle cx="28.5" cy="28.5" r="28.5" fill="white"/>
<path d="M24.7784 42.5905C26.2364 47.9741 31.4467 52.0832 34.0773 51.9201C34.1691 51.9201 44.0594 50.0644 49.4736 40.9999C53.6847 33.9441 52.2572 27.1331 46.5269 26.9801C44.4877 27.1331 22.056 32.3331 24.7784 42.5905Z" fill="url(#paint0_linear_1_13)"/>
<path d="M45.9865 8.00496C42.3799 4.92922 37.9764 2.93699 33.2852 2.25857C28.594 1.58015 23.8066 2.24323 19.4763 4.17118C18.9272 4.39998 18.3926 4.66217 17.8755 4.95629C17.5289 5.13982 17.172 5.33355 16.8559 5.53747H16.9477C15.9192 6.24146 15.0133 7.10948 14.2661 8.10692C7.07773 17.62 31.2428 24.5738 44.1818 24.5942C50.1364 28.8766 51.8086 12.5423 45.9865 8.00496Z" fill="url(#paint1_linear_1_13)"/>
<path d="M20.9446 8.19869C17.6206 13.205 6.54753 16.7329 4.7224 16.1823L4.94672 15.7235C5.56603 14.4916 6.27843 13.3088 7.07773 12.1854C8.7006 10.0038 10.6427 8.07894 12.8386 6.47553C13.5168 5.96324 14.2213 5.48676 14.9492 5.04806C16.0658 4.40966 17.3238 4.05925 18.6097 4.02843C23.5446 4.1202 20.965 8.10692 20.9446 8.10692" fill="url(#paint2_linear_1_13)"/>
<path d="M18.212 43.5796C18.4567 45.1498 18.212 51.3593 17.8857 51.8895C17.6104 51.8895 17.0394 51.9405 15.3673 51.0024C14.4912 50.5044 13.6467 49.9528 12.8386 49.3506C11.7529 48.5462 10.7303 47.6599 9.77973 46.6996C8.81678 45.7515 7.93034 44.7287 7.12871 43.6407C5.49579 41.4256 4.22578 38.9647 3.36631 36.3505C2.9159 35.021 2.5749 33.657 2.34668 32.272C1.88444 29.4186 1.88444 26.5095 2.34668 23.6562C2.57725 22.2716 2.91821 20.9078 3.36631 19.5777C3.44788 19.3126 3.53964 19.0475 3.6416 18.7824C5.5483 21.3314 7.72009 23.6358 9.64718 26.2052C11.5743 28.7747 13.899 32.6492 14.3986 33.5057C17.4575 38.7975 18.0081 42.0705 18.2426 43.6407" fill="url(#paint3_linear_1_13)"/>
<path d="M55 27.9182C55.0035 31.2578 54.3774 34.5682 53.1544 37.676C50.0344 41.0305 28.9792 32.7614 28.7753 32.6696C25.8898 31.4053 17.1312 27.5715 16.3359 21.5149C15.2347 12.8176 32.8028 6.76102 40.5417 6.5265C41.4696 6.5265 44.2939 6.5265 45.9355 7.91319C48.7881 10.4064 51.0732 13.482 52.6369 16.9328C54.2005 20.3837 55.0063 24.1296 55 27.9182" fill="url(#paint4_linear_1_13)"/>
<path d="M40.7252 51.4714C38.4311 52.5522 35.9024 51.7671 36.5652 49.524C37.8193 45.2314 48.8007 40.8164 51.2579 40.5819C51.5536 40.5819 51.6862 40.7552 51.5536 40.9897C49.0185 45.4455 45.2611 49.0826 40.7252 51.4714Z" fill="url(#paint5_linear_1_13)"/>
<defs>
<linearGradient id="paint0_linear_1_13" x1="38.2272" y1="51.9201" x2="38.2272" y2="26.9801" gradientUnits="userSpaceOnUse">
<stop stop-color="#4366C2"/>
<stop offset="0.15" stop-color="#3458B8"/>
<stop offset="0.4" stop-color="#2348AC"/>
<stop offset="0.67" stop-color="#193FA5"/>
<stop offset="1" stop-color="#163CA3"/>
</linearGradient>
<linearGradient id="paint1_linear_1_13" x1="31.2734" y1="25.2977" x2="31.2734" y2="1.98919" gradientUnits="userSpaceOnUse">
<stop stop-color="#4366C2"/>
<stop offset="0.15" stop-color="#3458B8"/>
<stop offset="0.4" stop-color="#2348AC"/>
<stop offset="0.67" stop-color="#193FA5"/>
<stop offset="1" stop-color="#163CA3"/>
</linearGradient>
<linearGradient id="paint2_linear_1_13" x1="4.71221" y1="10.1666" x2="21.6379" y2="10.1666" gradientUnits="userSpaceOnUse">
<stop stop-color="#58C66B"/>
<stop offset="1" stop-color="#5491F6"/>
</linearGradient>
<linearGradient id="paint3_linear_1_13" x1="1.97962" y1="35.3104" x2="18.314" y2="35.3104" gradientUnits="userSpaceOnUse">
<stop stop-color="#58C66B"/>
<stop offset="1" stop-color="#5491F6"/>
</linearGradient>
<linearGradient id="paint4_linear_1_13" x1="16.2849" y1="22.504" x2="55" y2="22.504" gradientUnits="userSpaceOnUse">
<stop stop-color="#58C66B"/>
<stop offset="1" stop-color="#5491F6"/>
</linearGradient>
<linearGradient id="paint5_linear_1_13" x1="36.4734" y1="46.2612" x2="51.625" y2="46.2612" gradientUnits="userSpaceOnUse">
<stop stop-color="#58C66B"/>
<stop offset="1" stop-color="#5491F6"/>
</linearGradient>
</defs>
</svg>
