<?xml version="1.0" encoding="utf-8"?>
<!-- Generator: Adobe Illustrator 24.3.0, SVG Export Plug-In . SVG Version: 6.00 Build 0)  -->
<svg version="1.1" id="Layer_1" xmlns="http://www.w3.org/2000/svg" xmlns:xlink="http://www.w3.org/1999/xlink" x="0px" y="0px"
	 viewBox="0 0 32 32" style="enable-background:new 0 0 32 32;" xml:space="preserve">
<style type="text/css">
	.st0{fill:#FFFFFF;}
	.st1{fill:#0E3CA5;}
	.st2{fill:#5493F7;}
</style>
<g id="Layer_1-2">
	<circle class="st0" cx="16" cy="16" r="16"/>
	<g id="Symbol_terra">
		<path class="st1" d="M13.9,24.3c0.8,3,3.8,5.4,5.3,5.3c3.6-0.8,6.7-3,8.7-6.2c2.4-4,1.6-7.8-1.7-7.9C25,15.6,12.3,18.5,13.9,24.3"
			/>
		<path class="st1" d="M25.9,4.8L25.9,4.8c-4.2-3.5-10-4.4-15-2.2c-0.3,0.1-0.6,0.3-0.9,0.4C9.8,3.2,9.6,3.3,9.4,3.4l0,0
			C8.9,3.8,8.4,4.3,8,4.8c-4.1,5.4,9.6,9.3,16.9,9.3C28.2,16.6,29.2,7.3,25.9,4.8z"/>
		<path class="st2" d="M11.7,4.9C9.9,7.7,3.6,9.7,2.5,9.4l0,0l0.1-0.3c0.4-0.7,0.8-1.4,1.2-2c0.5-0.6,1-1.2,1.5-1.8
			c0.5-0.5,1.1-1,1.8-1.5c0.4-0.3,0.8-0.5,1.2-0.8C9,2.8,9.7,2.6,10.4,2.5C13.2,2.6,11.7,4.8,11.7,4.9"/>
		<path class="st2" d="M10.2,24.9c0.1,1.6,0.1,3.1-0.2,4.7c-0.2,0-0.5,0-1.4-0.5c-0.5-0.3-1-0.6-1.4-0.9c-0.6-0.5-1.2-1-1.8-1.5
			c-0.5-0.5-1-1.1-1.5-1.8c-0.5-0.6-0.9-1.3-1.2-2c-0.4-0.7-0.7-1.4-0.9-2.2c-0.2-0.8-0.4-1.5-0.6-2.3C1.1,17.6,1,16.8,1,16
			c0-0.8,0.1-1.6,0.2-2.4c0.1-0.8,0.3-1.6,0.6-2.3c0-0.1,0.1-0.3,0.2-0.4l0,0C3,12.3,4.2,13.6,5.3,15s2.4,3.7,2.7,4.1
			C9.1,20.9,9.9,22.8,10.2,24.9"/>
		<path class="st2" d="M31,16c0,1.9-0.3,3.8-1,5.5c-1.8,1.9-13.7-2.8-13.8-2.8c-1.6-0.7-6.6-2.9-7-6.3C8.5,7.5,18.4,4.1,22.8,4
			c1.1-0.1,2.1,0.2,3,0.8C29.1,7.6,31,11.7,31,16"/>
		<path class="st2" d="M22.9,29.3c-1.3,0.6-2.7,0.2-2.4-1.1c0.7-2.4,6.9-4.9,8.3-5c0.2,0,0.2,0.1,0.2,0.2C27.6,26,25.5,28,22.9,29.3
			"/>
	</g>
</g>
</svg>
