<svg width="45" height="42" viewBox="0 0 45 42" fill="none" xmlns="http://www.w3.org/2000/svg">
<path fill-rule="evenodd" clip-rule="evenodd" d="M1.09999 2.6C1.39999 2.7 1.69999 2.7 2.09999 2.8C2.29999 2.8 2.49999 3 2.49999 3.2C2.59999 3.6 2.79999 4 2.89999 4.5C2.99999 4.7 2.89999 4.9 2.69999 4.8C2.39999 4.7 2.09999 4.7 1.79999 4.6C1.59999 4.6 1.49999 4.4 1.39999 4.2C1.29999 3.8 1.09999 3.3 0.999994 2.9C0.899994 2.7 0.999994 2.5 1.09999 2.6Z" fill="white"/>
<path fill-rule="evenodd" clip-rule="evenodd" d="M2.2 0.499998C2.5 0.599998 2.9 0.699998 3.2 0.799998C3.4 0.799998 3.6 1.1 3.6 1.3C3.7 1.6 3.9 2 4 2.4C4.1 2.6 4 2.7 3.8 2.7C3.5 2.6 3.2 2.5 2.8 2.5C2.6 2.5 2.4 2.3 2.4 2C2.3 1.6 2.1 1.2 2 0.699998C1.9 0.599998 2 0.399998 2.2 0.499998Z" fill="white"/>
<path fill-rule="evenodd" clip-rule="evenodd" d="M4.09999 1C4.39999 1.1 4.79999 1.2 5.09999 1.3C5.29999 1.4 5.49999 1.6 5.49999 1.8C5.69999 2.2 5.79999 2.6 5.99999 3C6.09999 3.2 5.99999 3.3 5.79999 3.3C5.49999 3.2 5.09999 3.1 4.79999 3C4.59999 3 4.39999 2.7 4.39999 2.5C4.29999 2.1 4.09999 1.7 3.99999 1.3C3.89999 1.1 3.99999 1 4.09999 1Z" fill="white"/>
<path fill-rule="evenodd" clip-rule="evenodd" d="M10.1 3.2C10.4 3.3 10.8 3.5 11.1 3.7C11.3 3.8 11.5 4 11.5 4.2C11.6 4.6 11.7 4.9 11.9 5.3C12 5.5 11.9 5.6 11.7 5.5C11.4 5.3 11 5.2 10.7 5.1C10.5 5 10.3 4.8 10.3 4.6C10.2 4.2 10.1 3.9 9.89999 3.5C9.89999 3.2 9.99999 3.2 10.1 3.2Z" fill="white"/>
<path fill-rule="evenodd" clip-rule="evenodd" d="M2.99999 3C3.29999 3.1 3.59999 3.1 3.99999 3.2C4.19999 3.2 4.39999 3.4 4.39999 3.7C4.49999 4.1 4.69999 4.5 4.79999 4.9C4.89999 5.1 4.79999 5.2 4.59999 5.2C4.29999 5.1 3.99999 5 3.69999 5C3.49999 5 3.39999 4.8 3.29999 4.6C3.19999 4.2 2.99999 3.8 2.89999 3.3C2.79999 3.1 2.89999 2.9 2.99999 3Z" fill="white"/>
<path fill-rule="evenodd" clip-rule="evenodd" d="M4.9 3.5C5.2 3.6 5.6 3.7 5.9 3.8C6.1 3.8 6.3 4 6.3 4.2C6.4 4.6 6.6 5 6.7 5.4C6.8 5.6 6.7 5.7 6.5 5.7C6.2 5.6 5.8 5.5 5.5 5.5C5.3 5.5 5.1 5.3 5.1 5.1C5 4.7 4.8 4.3 4.7 3.9C4.7 3.5 4.8 3.4 4.9 3.5Z" fill="white"/>
<path fill-rule="evenodd" clip-rule="evenodd" d="M6.9 4C7.2 4.1 7.6 4.2 7.9 4.3C8.1 4.4 8.3 4.6 8.3 4.8C8.4 5.2 8.6 5.6 8.7 5.9C8.8 6.1 8.7 6.2 8.5 6.1C8.2 6 7.8 5.9 7.5 5.8C7.3 5.8 7.1 5.6 7.1 5.4C7 5 6.8 4.6 6.7 4.2C6.6 4.1 6.7 4 6.9 4Z" fill="white"/>
<path fill-rule="evenodd" clip-rule="evenodd" d="M8.9 4.7C9.2 4.8 9.6 4.9 9.9 5.1C10.1 5.2 10.3 5.4 10.3 5.6C10.4 6 10.5 6.3 10.7 6.7C10.8 6.9 10.7 7 10.5 6.9C10.2 6.8 9.8 6.7 9.5 6.5C9.3 6.4 9.09999 6.2 9.09999 6C8.99999 5.6 8.8 5.2 8.7 4.9C8.6 4.7 8.7 4.6 8.9 4.7Z" fill="white"/>
<path fill-rule="evenodd" clip-rule="evenodd" d="M10.9 5.5C11.2 5.6 11.6 5.8 11.9 5.9C12.1 6 12.3 6.2 12.3 6.4C12.4 6.8 12.5 7.1 12.7 7.5C12.8 7.7 12.7 7.8 12.5 7.7C12.2 7.5 11.8 7.4 11.5 7.3C11.3 7.2 11.1 7 11.1 6.8C11 6.4 10.9 6.1 10.7 5.7C10.6 5.5 10.7 5.4 10.9 5.5Z" fill="white"/>
<path fill-rule="evenodd" clip-rule="evenodd" d="M7.7 6.4C8 6.5 8.4 6.6 8.7 6.7C8.9 6.8 9.1 7 9.1 7.1C9.2 7.5 9.4 7.9 9.5 8.2C9.6 8.4 9.5 8.5 9.3 8.5C9 8.4 8.6 8.3 8.3 8.2C8.1 8.2 7.9 8 7.9 7.8C7.8 7.4 7.6 7 7.5 6.6C7.4 6.4 7.5 6.3 7.7 6.4Z" fill="white"/>
<path fill-rule="evenodd" clip-rule="evenodd" d="M9.59999 7C9.89999 7.1 10.3 7.2 10.6 7.4C10.8 7.5 11 7.7 11 7.9C11.1 8.3 11.3 8.6 11.4 9C11.5 9.2 11.4 9.3 11.2 9.2C10.9 9.1 10.5 9 10.2 8.9C9.99999 8.8 9.79999 8.6 9.79999 8.5C9.69999 8.1 9.49999 7.7 9.39999 7.4C9.39999 7 9.49999 6.9 9.59999 7Z" fill="white"/>
<path fill-rule="evenodd" clip-rule="evenodd" d="M6.59999 8.3C6.89999 8.4 7.19999 8.4 7.59999 8.5C7.79999 8.5 7.99999 8.7 7.99999 8.9C8.09999 9.3 8.29999 9.7 8.39999 10.1C8.49999 10.3 8.39999 10.4 8.19999 10.4C7.89999 10.3 7.59999 10.3 7.29999 10.2C7.09999 10.2 6.99999 10 6.89999 9.8C6.79999 9.4 6.59999 9 6.49999 8.6C6.29999 8.4 6.39999 8.3 6.59999 8.3Z" fill="white"/>
<path fill-rule="evenodd" clip-rule="evenodd" d="M8.49999 8.7C8.79999 8.8 9.19999 8.9 9.49999 9C9.69999 9 9.89999 9.2 9.89999 9.4C9.99999 9.8 10.2 10.2 10.3 10.5C10.4 10.7 10.3 10.8 10.1 10.8C9.79999 10.7 9.39999 10.6 9.09999 10.6C8.89999 10.6 8.69999 10.4 8.69999 10.2C8.59999 9.8 8.39999 9.4 8.29999 9C8.19999 8.8 8.29999 8.7 8.49999 8.7Z" fill="white"/>
<path fill-rule="evenodd" clip-rule="evenodd" d="M10.4 9.3C10.7 9.4 11.1 9.5 11.4 9.6C11.6 9.7 11.8 9.9 11.8 10.1C11.9 10.5 12.1 10.8 12.2 11.2C12.3 11.4 12.2 11.5 12 11.4C11.7 11.3 11.3 11.2 11 11.1C10.8 11 10.6 10.9 10.6 10.7C10.5 10.3 10.3 9.9 10.2 9.6C10.2 9.3 10.2 9.2 10.4 9.3Z" fill="white"/>
<path fill-rule="evenodd" clip-rule="evenodd" d="M12.4 10C12.7 10.1 13.1 10.3 13.4 10.4C13.6 10.5 13.8 10.7 13.8 10.9C13.9 11.3 14 11.6 14.2 12C14.3 12.2 14.2 12.3 14 12.2C13.7 12.1 13.3 11.9 13 11.8C12.8 11.7 12.6 11.5 12.6 11.3C12.5 10.9 12.4 10.6 12.2 10.2C12.1 10 12.2 9.9 12.4 10Z" fill="white"/>
<path fill-rule="evenodd" clip-rule="evenodd" d="M12.4 4.3C12.8 4.5 13.1 4.7 13.5 4.9C13.7 5 13.9 5.3 14 5.4C14.1 5.8 14.2 6.1 14.4 6.5C14.5 6.7 14.4 6.7 14.2 6.6C13.7 6.4 13.3 6.2 13 6C12.8 5.9 12.6 5.7 12.6 5.5C12.5 5.1 12.4 4.8 12.2 4.4C12.1 4.3 12.2 4.2 12.4 4.3Z" fill="white"/>
<path fill-rule="evenodd" clip-rule="evenodd" d="M13.1 6.5C13.5 6.7 13.8 6.9 14.2 7C14.4 7.1 14.6 7.4 14.7 7.5C14.8 7.9 14.9 8.2 15.1 8.6C15.2 8.8 15.1 8.8 14.9 8.7C14.5 8.5 14.2 8.3 13.8 8.2C13.6 8.1 13.4 7.9 13.4 7.7C13.1 7.4 13 7 12.9 6.7C12.8 6.5 12.9 6.4 13.1 6.5Z" fill="white"/>
<path fill-rule="evenodd" clip-rule="evenodd" d="M13.8 8.7C14.2 8.9 14.5 9 14.9 9.2C15.1 9.3 15.3 9.5 15.4 9.7C15.5 10.1 15.6 10.4 15.8 10.8C15.9 11 15.8 11 15.6 10.9C15.2 10.7 14.9 10.5 14.5 10.4C14.3 10.3 14.1 10.1 14.1 9.9C14 9.5 13.9 9.2 13.7 8.8C13.6 8.7 13.7 8.6 13.8 8.7Z" fill="white"/>
<path fill-rule="evenodd" clip-rule="evenodd" d="M14.6 10.9C15 11.1 15.3 11.2 15.7 11.4C15.9 11.5 16.1 11.7 16.2 11.9C16.3 12.3 16.4 12.6 16.6 13C16.7 13.2 16.6 13.2 16.4 13.1C16 12.9 15.7 12.8 15.3 12.6C15.1 12.5 14.9 12.3 14.9 12.1C14.8 11.7 14.7 11.4 14.5 11C14.3 10.9 14.4 10.8 14.6 10.9Z" fill="white"/>
<path fill-rule="evenodd" clip-rule="evenodd" d="M14.5 5.5C14.9 5.7 15.3 6 15.6 6.2C15.8 6.3 16 6.6 16.1 6.8C16.2 7.2 16.3 7.5 16.5 7.9C16.6 8.1 16.5 8.1 16.3 8C15.9 7.7 15.5 7.5 15.2 7.3C15 7.2 14.8 6.9 14.7 6.8C14.6 6.4 14.5 6.1 14.3 5.7C14.2 5.4 14.3 5.4 14.5 5.5Z" fill="white"/>
<path fill-rule="evenodd" clip-rule="evenodd" d="M16.8 7C17.2 7.3 17.6 7.7 18 8C18.2 8.2 18.4 8.5 18.5 8.6C18.6 8.9 18.7 9.3 18.9 9.7C19 9.9 18.8 9.9 18.6 9.7C18.2 9.4 17.8 9 17.4 8.7C17.2 8.5 17 8.3 16.9 8.1C16.8 7.7 16.7 7.4 16.5 7C16.5 6.9 16.6 6.8 16.8 7Z" fill="white"/>
<path fill-rule="evenodd" clip-rule="evenodd" d="M19.3 9.2C19.8 9.7 20.3 10.3 20.9 11.1C21.2 11.5 23.7 19 23.7 19C23.7 19 21.6 13 21.4 12.7C20.9 12 20.3 11.4 19.9 10.9C19.7 10.7 19.5 10.4 19.4 10.2C19.3 9.9 19.2 9.5 19.1 9.2C18.9 8.9 19.1 9 19.3 9.2Z" fill="white"/>
<path fill-rule="evenodd" clip-rule="evenodd" d="M17.5 9.1C17.9 9.4 18.3 9.7 18.7 10.1C18.9 10.3 19.1 10.6 19.2 10.7C19.3 11.1 19.4 11.4 19.6 11.8C19.7 12 19.5 12 19.3 11.8C18.9 11.5 18.5 11.1 18.1 10.8C17.9 10.7 17.7 10.4 17.6 10.2C17.5 9.8 17.4 9.5 17.2 9.1C17.2 9 17.3 9 17.5 9.1Z" fill="white"/>
<path fill-rule="evenodd" clip-rule="evenodd" d="M20 11.3C20.5 11.8 21 12.4 21.5 13.1C21.8 13.4 23.7 19 23.7 19C23.7 19 22.3 14.9 22 14.6C21.5 14 21 13.4 20.5 13C20.3 12.8 20.1 12.5 20 12.3C19.9 11.9 19.8 11.6 19.7 11.3C19.6 11 19.8 11.1 20 11.3Z" fill="white"/>
<path fill-rule="evenodd" clip-rule="evenodd" d="M16 9.8C16.4 10 16.7 10.3 17.1 10.5C17.3 10.6 17.5 10.9 17.6 11.1C17.7 11.5 17.8 11.8 18 12.2C18.1 12.4 18 12.4 17.8 12.3C17.4 12.1 17 11.8 16.7 11.6C16.5 11.5 16.3 11.3 16.3 11.1C16.2 10.7 16.1 10.4 15.9 10C15.7 9.8 15.8 9.7 16 9.8Z" fill="white"/>
<path fill-rule="evenodd" clip-rule="evenodd" d="M18.2 11.3C18.6 11.6 19 11.9 19.4 12.3C19.6 12.5 19.8 12.8 19.9 12.9C20 13.3 20.1 13.6 20.3 14C20.4 14.2 20.2 14.2 20 14C19.6 13.7 19.2 13.4 18.8 13.1C18.6 13 18.4 12.7 18.3 12.5C18.2 12.1 18.1 11.8 17.9 11.4C17.9 11.2 18 11.1 18.2 11.3Z" fill="white"/>
<path fill-rule="evenodd" clip-rule="evenodd" d="M20.7 13.4C21.2 13.8 21.7 14.4 22.2 15C22.5 15.3 23.8 19 23.8 19C23.8 19 23 16.9 22.7 16.6C22.2 16 21.7 15.5 21.3 15.1C21.1 14.9 20.9 14.6 20.8 14.4C20.7 14.1 20.6 13.7 20.5 13.4C20.3 13.1 20.5 13.2 20.7 13.4Z" fill="white"/>
<path fill-rule="evenodd" clip-rule="evenodd" d="M16.7 12C17.1 12.2 17.4 12.5 17.8 12.7C18 12.8 18.2 13.1 18.3 13.3C18.4 13.7 18.5 14 18.7 14.4C18.8 14.6 18.7 14.6 18.5 14.5C18.1 14.3 17.7 14 17.4 13.8C17.2 13.7 17 13.5 17 13.3C16.9 12.9 16.8 12.6 16.6 12.2C16.4 12 16.5 11.9 16.7 12Z" fill="white"/>
<path fill-rule="evenodd" clip-rule="evenodd" d="M19 13.5C19.4 13.8 19.8 14.1 20.2 14.4C20.4 14.6 20.6 14.9 20.7 15C20.8 15.4 20.9 15.7 21.1 16.1C21.2 16.3 21 16.3 20.8 16.1C20.4 15.8 20 15.5 19.6 15.2C19.4 15.1 19.2 14.8 19.1 14.6C19 14.2 18.9 13.9 18.7 13.5C18.6 13.4 18.8 13.3 19 13.5Z" fill="white"/>
<path fill-rule="evenodd" clip-rule="evenodd" d="M21.4 15.4C21.9 15.8 22.3 16.3 22.8 16.9C23 17.2 23.7 18.9 23.7 18.9C23.7 18.9 23.5 18.7 23.3 18.4C22.8 17.9 22.4 17.4 21.9 17C21.7 16.8 21.5 16.5 21.4 16.4C21.3 16.1 21.2 15.7 21.1 15.4C21 15.2 21.2 15.2 21.4 15.4Z" fill="white"/>
<path fill-rule="evenodd" clip-rule="evenodd" d="M18.7 41.5C19 41.2 19.3 41 19.6 40.7C19.7 40.6 19.7 40.4 19.6 40.3C19.3 40 19.1 39.7 18.8 39.5C18.7 39.4 18.6 39.4 18.4 39.5C18.1 39.8 17.8 40 17.5 40.2C17.4 40.3 17.4 40.4 17.5 40.5C17.8 40.8 18 41.1 18.3 41.4C18.5 41.6 18.6 41.6 18.7 41.5ZM16 35.4C16.3 35.1 16.6 34.9 16.9 34.6C17 34.5 17 34.3 16.9 34.2C16.7 33.9 16.4 33.7 16.2 33.4C16.1 33.3 16 33.3 15.9 33.4C15.6 33.6 15.3 33.9 15 34.1C14.9 34.2 14.9 34.3 15 34.4C15.3 34.7 15.5 35 15.8 35.2C15.8 35.5 15.9 35.5 16 35.4ZM17.6 33.9C17.9 33.6 18.1 33.3 18.4 33.1C18.5 33 18.5 32.8 18.4 32.7C18.2 32.4 17.9 32.2 17.7 31.9C17.6 31.8 17.5 31.8 17.4 31.9C17.1 32.2 16.9 32.4 16.6 32.7C16.5 32.8 16.5 32.9 16.6 33C16.8 33.3 17.1 33.5 17.3 33.8C17.4 34 17.5 34 17.6 33.9ZM19.1 32.3C19.4 32 19.6 31.7 19.8 31.4C19.9 31.3 19.9 31.1 19.8 31C19.6 30.8 19.4 30.5 19.1 30.3C19 30.2 18.9 30.2 18.8 30.3C18.5 30.6 18.3 30.9 18 31.2C17.9 31.3 17.9 31.5 18 31.6C18.2 31.9 18.5 32.1 18.7 32.4C18.9 32.5 19 32.4 19.1 32.3ZM20.5 30.6C20.7 30.3 20.9 30 21.2 29.6C21.3 29.5 21.3 29.3 21.2 29.2C21 29 20.8 28.8 20.6 28.5C20.5 28.4 20.4 28.4 20.3 28.6C20.1 28.9 19.8 29.2 19.6 29.5C19.5 29.6 19.5 29.8 19.6 29.9C19.8 30.1 20 30.4 20.3 30.6C20.2 30.8 20.4 30.8 20.5 30.6ZM21.7 28.8C21.9 28.5 22.1 28.1 22.3 27.7C22.4 27.6 22.4 27.4 22.3 27.3C22.1 27.1 21.9 26.9 21.8 26.7C21.7 26.6 21.6 26.7 21.5 26.8C21.3 27.1 21.1 27.5 20.8 27.8C20.7 27.9 20.7 28.1 20.8 28.2C21 28.4 21.2 28.6 21.4 28.9C21.5 29 21.6 28.9 21.7 28.8ZM22.8 26.8C23 26.4 23.1 26 23.3 25.6C23.4 25.5 23.3 25.3 23.3 25.2C23.1 25 23 24.9 22.8 24.7C22.7 24.6 22.7 24.7 22.6 24.8C22.4 25.2 22.2 25.5 22 25.9C21.9 26 21.9 26.2 22 26.3C22.2 26.5 22.4 26.7 22.5 26.9C22.6 27 22.7 26.9 22.8 26.8ZM23.6 24.5C23.7 24.1 23.8 23.6 23.9 23.1C23.9 22.9 23.9 22.7 23.9 22.7C23.8 22.6 23.7 22.5 23.6 22.4C23.6 22.4 23.5 22.5 23.5 22.6C23.4 23 23.2 23.4 23.1 23.8C23 23.9 23 24.1 23.1 24.2C23.2 24.4 23.4 24.5 23.5 24.7C23.5 24.7 23.6 24.7 23.6 24.5ZM19 35.4C19.3 35.1 19.5 34.8 19.8 34.5C19.9 34.4 19.9 34.2 19.8 34.1C19.6 33.8 19.3 33.6 19.1 33.3C19 33.2 18.9 33.2 18.8 33.3C18.5 33.6 18.3 33.9 18 34.1C17.9 34.2 17.9 34.4 18 34.5C18.2 34.8 18.5 35 18.7 35.3C18.8 35.5 18.9 35.5 19 35.4ZM20.4 33.8C20.6 33.5 20.9 33.2 21.1 32.9C21.2 32.8 21.2 32.6 21.1 32.5C20.9 32.3 20.6 32 20.4 31.8C20.3 31.7 20.2 31.7 20.1 31.8C19.9 32.1 19.6 32.4 19.4 32.7C19.3 32.8 19.3 33 19.4 33.1C19.6 33.4 19.9 33.6 20.1 33.9C20.2 33.9 20.3 33.9 20.4 33.8ZM21.7 32C21.9 31.7 22.1 31.3 22.3 31C22.4 30.9 22.4 30.7 22.3 30.6C22.1 30.4 21.9 30.2 21.7 29.9C21.6 29.8 21.5 29.9 21.4 30C21.2 30.3 21 30.7 20.7 31C20.6 31.1 20.6 31.3 20.7 31.4C20.9 31.6 21.1 31.9 21.4 32.1C21.5 32.1 21.6 32.1 21.7 32ZM22.8 30C23 29.6 23.2 29.3 23.3 28.9C23.4 28.8 23.4 28.6 23.3 28.5C23.1 28.3 22.9 28.1 22.8 27.9C22.7 27.8 22.6 27.9 22.6 28C22.4 28.4 22.2 28.7 22 29.1C21.9 29.2 21.9 29.4 22 29.5C22.2 29.7 22.4 29.9 22.6 30.2C22.6 30.2 22.7 30.1 22.8 30ZM23.7 27.8C23.8 27.4 24 27 24.1 26.5C24.1 26.3 24.1 26.2 24.1 26.1C23.9 25.9 23.8 25.8 23.6 25.6C23.5 25.5 23.5 25.6 23.4 25.8C23.3 26.2 23.1 26.6 22.9 27C22.8 27.1 22.8 27.3 22.9 27.4C23.1 27.6 23.3 27.8 23.4 28C23.6 28 23.7 28 23.7 27.8ZM24.4 25.3C24.5 24.8 24.5 24.3 24.5 23.8C24.5 23.6 24.5 23.4 24.4 23.4C24.3 23.3 24.2 23.2 24.1 23.1C24.1 23.1 24 23.2 24 23.4C23.9 23.9 23.8 24.4 23.7 24.8C23.7 25 23.7 25.1 23.7 25.2C23.8 25.4 24 25.5 24.1 25.7C24.3 25.6 24.3 25.5 24.4 25.3ZM18.9 38.5C19.2 38.2 19.5 38 19.7 37.7C19.8 37.6 19.8 37.4 19.7 37.3C19.5 37 19.2 36.8 19 36.5C18.9 36.4 18.8 36.4 18.7 36.5C18.4 36.8 18.1 37 17.9 37.3C17.8 37.4 17.8 37.5 17.9 37.6C18.2 37.9 18.4 38.2 18.7 38.4C18.6 38.5 18.8 38.6 18.9 38.5ZM20.4 36.9C20.6 36.6 20.9 36.3 21.1 36C21.2 35.9 21.2 35.7 21.1 35.6C20.9 35.3 20.6 35.1 20.4 34.8C20.3 34.7 20.2 34.7 20.1 34.8C19.8 35.1 19.6 35.4 19.3 35.7C19.2 35.8 19.2 36 19.3 36.1C19.5 36.4 19.8 36.6 20 36.9C20.1 37 20.3 37 20.4 36.9ZM21.7 35.2C21.9 34.9 22.2 34.6 22.4 34.2C22.5 34.1 22.5 33.9 22.4 33.8C22.2 33.6 22 33.3 21.7 33.1C21.6 33 21.5 33 21.4 33.2C21.2 33.5 20.9 33.8 20.7 34.2C20.6 34.3 20.6 34.5 20.7 34.6C20.9 34.9 21.2 35.1 21.4 35.4C21.5 35.3 21.6 35.3 21.7 35.2ZM22.9 33.3C23.1 32.9 23.3 32.6 23.5 32.2C23.6 32.1 23.6 31.9 23.5 31.8C23.3 31.6 23.1 31.4 22.9 31.1C22.8 31 22.7 31.1 22.6 31.2C22.4 31.6 22.2 31.9 22 32.2C21.9 32.3 21.9 32.5 22 32.6C22.2 32.8 22.4 33.1 22.7 33.3C22.7 33.4 22.9 33.4 22.9 33.3ZM23.9 31.2C24.1 30.8 24.2 30.4 24.3 30C24.3 29.8 24.3 29.7 24.3 29.6C24.1 29.4 23.9 29.2 23.8 29C23.7 28.9 23.6 29 23.6 29.1C23.4 29.5 23.3 29.9 23.1 30.3C23 30.4 23 30.6 23.1 30.7C23.3 30.9 23.5 31.1 23.7 31.3C23.8 31.4 23.9 31.3 23.9 31.2ZM24.7 28.8C24.8 28.3 24.9 27.9 25 27.4C25 27.2 25 27 24.9 27C24.8 26.8 24.6 26.7 24.4 26.5C24.3 26.4 24.3 26.5 24.2 26.7C24.1 27.2 24 27.6 23.8 28C23.8 28.2 23.8 28.3 23.8 28.4C24 28.6 24.2 28.8 24.3 29C24.6 29.1 24.7 29 24.7 28.8ZM25.1 26.1C25.1 25.6 25.1 25 25.1 24.4C25.1 24.2 25 24 25 23.9C24.9 23.8 24.8 23.7 24.7 23.6C24.7 23.6 24.6 23.7 24.6 23.9C24.6 24.5 24.5 25 24.5 25.5C24.5 25.7 24.5 25.9 24.6 25.9C24.7 26.1 24.9 26.2 25 26.4C25.1 26.4 25.1 26.3 25.1 26.1ZM20.3 40C20.6 39.7 20.8 39.4 21.1 39.1C21.2 39 21.2 38.8 21.1 38.7C20.9 38.4 20.6 38.2 20.4 37.9C20.3 37.8 20.2 37.8 20.1 37.9C19.8 38.2 19.6 38.5 19.3 38.7C19.2 38.8 19.2 39 19.3 39.1C19.6 39.4 19.8 39.7 20.1 39.9C20.1 40.1 20.2 40.1 20.3 40ZM21.8 38.4C22 38.1 22.3 37.8 22.5 37.5C22.6 37.4 22.6 37.2 22.5 37.1C22.3 36.8 22 36.6 21.8 36.3C21.7 36.2 21.6 36.2 21.5 36.3C21.3 36.6 21 36.9 20.8 37.2C20.7 37.3 20.7 37.5 20.8 37.6C21 37.9 21.3 38.1 21.5 38.4C21.5 38.5 21.7 38.5 21.8 38.4ZM24.2 34.6C24.4 34.2 24.5 33.8 24.7 33.4C24.8 33.3 24.7 33.1 24.7 33C24.5 32.8 24.3 32.6 24.1 32.3C24 32.2 23.9 32.3 23.8 32.4C23.6 32.8 23.4 33.1 23.3 33.5C23.2 33.6 23.2 33.8 23.3 33.9C23.5 34.1 23.7 34.4 24 34.6C24 34.8 24.1 34.7 24.2 34.6ZM25 32.4C25.1 32 25.3 31.6 25.4 31.1C25.4 30.9 25.4 30.8 25.4 30.7C25.2 30.5 25 30.3 24.9 30.1C24.8 30 24.7 30.1 24.7 30.3C24.6 30.7 24.4 31.1 24.3 31.5C24.2 31.6 24.3 31.8 24.3 31.9C24.5 32.1 24.7 32.3 24.9 32.6C24.9 32.6 25 32.5 25 32.4ZM25.7 29.9C25.8 29.4 25.8 28.9 25.9 28.4C25.9 28.2 25.9 28 25.8 27.9C25.6 27.7 25.5 27.6 25.3 27.4C25.2 27.3 25.2 27.4 25.2 27.6C25.1 28.1 25 28.6 24.9 29C24.9 29.2 24.9 29.4 25 29.4C25.2 29.6 25.4 29.8 25.5 30C25.6 30.2 25.6 30.1 25.7 29.9ZM25.9 27C25.9 26.4 25.8 25.8 25.7 25.1C25.7 24.8 25.6 24.6 25.6 24.6C25.5 24.5 25.4 24.4 25.3 24.3C25.3 24.3 25.3 24.4 25.3 24.6C25.4 25.2 25.4 25.8 25.4 26.4C25.4 26.6 25.4 26.8 25.5 26.9C25.6 27.1 25.8 27.2 25.9 27.4C25.9 27.3 25.9 27.2 25.9 27ZM25.3 23.1C25 22.3 24.7 21.3 24.1 20.1C23.9 19.6 23.7 19.3 23.7 19.3C23.7 19.3 23.7 19.5 23.7 19.7C23.7 20.3 23.7 20.8 23.6 21.3C23.6 21.5 23.6 21.6 23.6 21.7C23.7 21.8 23.8 21.9 23.9 22C23.9 22 24 21.9 24 21.7C24 21.1 23.9 20.5 23.8 19.8C23.7 19.5 23.7 19.3 23.7 19.3C23.7 19.3 23.8 19.5 23.8 19.8C24 20.5 24 21.2 24.1 21.8C24.1 22 24.1 22.2 24.2 22.2C24.3 22.3 24.4 22.4 24.5 22.5C24.5 22.5 24.5 22.4 24.5 22.1C24.4 21.4 24.3 20.7 24 19.8C23.9 19.5 23.8 19.2 23.8 19.2C23.8 19.2 23.9 19.5 24 19.8C24.3 20.7 24.5 21.5 24.6 22.1C24.6 22.3 24.7 22.5 24.7 22.6C24.8 22.7 24.9 22.8 25 22.9C25 22.9 25 22.8 25 22.5C24.8 21.7 24.6 20.9 24.2 19.9C24 19.5 23.9 19.2 23.9 19.2C23.9 19.2 24.1 19.5 24.2 19.9C24.6 20.9 24.9 21.8 25.1 22.6C25.2 22.9 25.2 23.1 25.3 23.1C25.4 23.2 25.5 23.3 25.6 23.4C25.4 23.6 25.4 23.4 25.3 23.1ZM15.8 38.3C16.1 38.1 16.4 37.8 16.7 37.6C16.8 37.5 16.8 37.4 16.7 37.3C16.4 37 16.2 36.7 15.9 36.5C15.8 36.4 15.6 36.4 15.5 36.5C15.2 36.7 14.9 37 14.6 37.2C14.5 37.3 14.5 37.4 14.6 37.5C14.9 37.8 15.1 38.1 15.4 38.4C15.5 38.3 15.7 38.4 15.8 38.3Z" fill="white"/>
<path fill-rule="evenodd" clip-rule="evenodd" d="M33.9 23.8L44.5 13.3H35.5L29.4 19.3L23.3 13.3H22C22.1 13.6 22.3 14 22.5 14.4C23.1 16 23.8 18.3 24.5 21.1C26.5 23.4 27.4 26.5 27.2 30.4L29.3 28.3L35.8 34.8H44.8L34.7 24.6L33.9 23.8Z" fill="white"/>
</svg>
