<?xml version="1.0" encoding="utf-8"?>
<!-- Generator: Adobe Illustrator 24.0.0, SVG Export Plug-In . SVG Version: 6.00 Build 0)  -->
<svg version="1.1" id="Layer_1" xmlns="http://www.w3.org/2000/svg" xmlns:xlink="http://www.w3.org/1999/xlink" x="0px" y="0px"
	 viewBox="0 0 400 400" style="enable-background:new 0 0 400 400;" xml:space="preserve">
<radialGradient id="SVGID_1_" cx="-80.0707" cy="343.983" r="1" gradientTransform="matrix(-1132.6895 1.028 2.9871 3291.1685 -91376.3203 -1131714.625)" gradientUnits="userSpaceOnUse">
	<stop  offset="0.1042" style="stop-color:#24537E"/>
	<stop  offset="0.5203" style="stop-color:#4FC1C0"/>
	<stop  offset="1" style="stop-color:#DAFFF4"/>
</radialGradient>
<path style="fill:url(#SVGID_1_);" d="M47.6,230.9c1.5,0,3,0.1,4.4,0.1c30.5,0,59-8.8,83-23.9c9.8,50.7,54.4,88.9,108,88.9
	c43.8,0,81.6-25.6,99.3-62.7c1.4-0.7,2.7-1.5,4.1-2.3C327.1,295.2,267.5,342,197,342C126.5,342,66.9,295.2,47.6,230.9z"/>
<path style="fill:#04171E;fill-opacity:0.88;" d="M47.6,230.9c1.5,0,3,0.1,4.4,0.1c30.5,0,59-8.8,83-23.9
	c9.8,50.7,54.4,88.9,108,88.9c43.8,0,81.6-25.6,99.3-62.7c1.4-0.7,2.7-1.5,4.1-2.3C327.1,295.2,267.5,342,197,342
	C126.5,342,66.9,295.2,47.6,230.9z"/>
<radialGradient id="SVGID_2_" cx="-80.0707" cy="343.983" r="1" gradientTransform="matrix(-1132.6895 1.028 2.9871 3291.1685 -91376.3203 -1131714.625)" gradientUnits="userSpaceOnUse">
	<stop  offset="0.1042" style="stop-color:#24537E"/>
	<stop  offset="0.5203" style="stop-color:#4FC1C0"/>
	<stop  offset="1" style="stop-color:#DAFFF4"/>
</radialGradient>
<path style="fill:url(#SVGID_2_);" d="M48.3,233.4c1.2,0,2.5,0,3.7,0c30.7,0,59.3-8.9,83.5-24.2C146.1,258.8,190.2,296,243,296
	c43.8,0,81.6-25.6,99.3-62.7c1.4-0.7,2.7-1.5,4.1-2.3C327.1,295.2,267.5,342,197,342C127.3,342,68.4,296.4,48.3,233.4z"/>
<path style="fill:#04171E;fill-opacity:0.4;" d="M48.3,233.4c1.2,0,2.5,0,3.7,0c30.7,0,59.3-8.9,83.5-24.2
	C146.1,258.8,190.2,296,243,296c43.8,0,81.6-25.6,99.3-62.7c1.4-0.7,2.7-1.5,4.1-2.3C327.1,295.2,267.5,342,197,342
	C127.3,342,68.4,296.4,48.3,233.4z"/>
<linearGradient id="SVGID_3_" gradientUnits="userSpaceOnUse" x1="187.2592" y1="41.1118" x2="135.7952" y2="308.7999" gradientTransform="matrix(1 0 0 -1 0 400)">
	<stop  offset="0" style="stop-color:#04171E"/>
	<stop  offset="1" style="stop-color:#04171E;stop-opacity:0"/>
</linearGradient>
<path style="fill:url(#SVGID_3_);fill-opacity:0.64;" d="M270.8,292.5C248.6,310.9,220.1,322,189,322c-58.1,0-107.1-38.7-122.8-91.6
	c25.1-2.3,48.5-10.5,68.8-23.3c9.8,50.7,54.4,88.9,108,88.9C252.6,296,261.9,294.8,270.8,292.5z"/>
<radialGradient id="SVGID_4_" cx="-79.6" cy="343.9885" r="1" gradientTransform="matrix(121.0179 -190.2545 -2756.8948 -1753.6176 958076.5625 588366.125)" gradientUnits="userSpaceOnUse">
	<stop  offset="0.1042" style="stop-color:#3A78B1"/>
	<stop  offset="0.5203" style="stop-color:#4FC1C0"/>
	<stop  offset="1" style="stop-color:#8CF2FD"/>
</radialGradient>
<path style="fill:url(#SVGID_4_);" d="M325,186c0,70.7-57.3,128-128,128S69,256.7,69,186S126.3,58,197,58S325,115.3,325,186z"/>
<radialGradient id="SVGID_5_" cx="-80.4403" cy="344.0057" r="1" gradientTransform="matrix(-180.0001 129.5005 128.5812 178.7224 -58395.9531 -50992.4688)" gradientUnits="userSpaceOnUse">
	<stop  offset="0.2165" style="stop-color:#FFFFFF"/>
	<stop  offset="0.9063" style="stop-color:#FFFFFF;stop-opacity:0"/>
</radialGradient>
<path style="fill:url(#SVGID_5_);fill-opacity:0.6;" d="M316.5,162c0,49.7-40.3,90-90,90c-49.7,0-90-40.3-90-90
	c0-49.7,40.3-90,90-90C276.2,72,316.5,112.3,316.5,162z"/>
<linearGradient id="SVGID_6_" gradientUnits="userSpaceOnUse" x1="247.7183" y1="347.5163" x2="115.7183" y2="290.0163" gradientTransform="matrix(1 0 0 -1 0 400)">
	<stop  offset="0" style="stop-color:#FFFFFF"/>
	<stop  offset="0.7324" style="stop-color:#FFFFFF;stop-opacity:0"/>
</linearGradient>
<path style="fill:url(#SVGID_6_);fill-opacity:0.64;" d="M205.4,72.1c-2-0.1-4-0.2-6.1-0.2c-19.1,0-37.2,4.8-52.9,13.3
	c8.4-1.9,17.2-2.8,26.2-2.8c9.2,0,18.1,1,26.6,2.9L205.4,72.1z"/>
<linearGradient id="SVGID_7_" gradientUnits="userSpaceOnUse" x1="290.3822" y1="249.5749" x2="158.3822" y2="192.0749" gradientTransform="matrix(1 0 0 -1 0 400)">
	<stop  offset="0" style="stop-color:#FFFFFF"/>
	<stop  offset="0.7324" style="stop-color:#FFFFFF;stop-opacity:0"/>
</linearGradient>
<path style="fill:url(#SVGID_7_);fill-opacity:0.64;" d="M212.8,89.3c47.1,16.6,80.8,61.4,80.8,114.2c0,21.7-5.7,42-15.7,59.6
	c20.5-20.2,33.1-48.3,33.1-79.4C311,129,271.8,83.6,220,73.9L212.8,89.3z"/>
<linearGradient id="SVGID_8_" gradientUnits="userSpaceOnUse" x1="595.7854" y1="464.1638" x2="55.9143" y2="14.3779" gradientTransform="matrix(1 0 0 -1 0 400)">
	<stop  offset="0" style="stop-color:#04171E"/>
	<stop  offset="1" style="stop-color:#04171E;stop-opacity:0"/>
</linearGradient>
<path style="fill:url(#SVGID_8_);fill-opacity:0.64;" d="M265.4,294.2C245.6,306.7,222.2,314,197,314c-39.9,0-75.5-18.2-99-46.8
	c6.5,1.2,13.1,1.8,20,1.8c49.5,0,91.3-32.7,105.2-77.6c4.6,0.4,9.2,0.6,13.8,0.6c32,0,61.7-9.6,86.4-26.1c1,6.6,1.6,13.3,1.6,20.1
	c0,4.2-0.2,8.4-0.6,12.6C317.2,237.4,295.6,271.2,265.4,294.2z"/>
<linearGradient id="SVGID_9_" gradientUnits="userSpaceOnUse" x1="303.359" y1="172.6578" x2="100.858" y2="101.1578" gradientTransform="matrix(1 0 0 -1 0 400)">
	<stop  offset="0" style="stop-color:#0E6585"/>
	<stop  offset="1" style="stop-color:#04171E"/>
</linearGradient>
<path style="fill:url(#SVGID_9_);" d="M47.6,231.1c19.3,64.2,78.9,111,149.4,111c85.8,0,155.5-69.3,156-155
	c-8.6-0.1-17-0.8-25.1-2.2c-19.2,8.5-40.5,13.2-62.9,13.2c-7.8,0-15.4-0.6-22.8-1.7c-13.8,45-55.7,77.7-105.2,77.7
	c-34.5,0-65.3-15.9-85.5-40.8C50.2,232.5,48.9,231.8,47.6,231.1z"/>
<radialGradient id="SVGID_10_" cx="-79.4721" cy="343.9979" r="1" gradientTransform="matrix(144.3669 -115.0948 -1795.1154 -2251.6665 629077.5625 765746.8125)" gradientUnits="userSpaceOnUse">
	<stop  offset="0.1042" style="stop-color:#3A78B1"/>
	<stop  offset="0.5203" style="stop-color:#4FC1C0"/>
	<stop  offset="1" style="stop-color:#8CF2FD"/>
</radialGradient>
<path style="fill:url(#SVGID_10_);" d="M353,187.1c-22.9,13.3-49.6,20.9-78,20.9c-5.4,0-10.8-0.3-16-0.8
	c-9.9,50.6-54.5,88.8-108,88.8c-43.8,0-81.6-25.6-99.3-62.7c-1.4-0.7-2.7-1.5-4.1-2.3C66.9,295.2,126.5,342,197,342
	C282.8,342,352.4,272.8,353,187.1z"/>
<linearGradient id="SVGID_11_" gradientUnits="userSpaceOnUse" x1="339.7867" y1="208.4602" x2="261.9107" y2="90.4192" gradientTransform="matrix(1 0 0 -1 0 400)">
	<stop  offset="0" style="stop-color:#FFFFFF;stop-opacity:0.64"/>
	<stop  offset="1" style="stop-color:#FFFFFF;stop-opacity:0"/>
</linearGradient>
<path style="fill:url(#SVGID_11_);fill-opacity:0.64;" d="M341.6,193.1c-9.4,4.4-19.3,8-29.6,10.5c-1.3,11.4-3.9,22.8-7.8,34.1
	c-9.5,27.5-25.6,50.9-46,68.8c34.8-16.8,63.2-46.9,76.8-86.3C338.1,211.2,340.3,202.2,341.6,193.1z"/>
<linearGradient id="SVGID_12_" gradientUnits="userSpaceOnUse" x1="259.7789" y1="191.9802" x2="234.4619" y2="207.6302" gradientTransform="matrix(1 0 0 -1 0 400)">
	<stop  offset="0" style="stop-color:#8CF2FD"/>
	<stop  offset="1" style="stop-color:#8CF2FD;stop-opacity:0"/>
</linearGradient>
<path style="opacity:0.2;fill-rule:evenodd;clip-rule:evenodd;fill:url(#SVGID_12_);enable-background:new    ;" d="M242.1,196.6
	c0.2-0.2,0.5-0.3,0.7-0.1c5.2,4.1,10.8,7.8,16.9,10.9c0.3,0.1,0.4,0.5,0.2,0.7s-0.4,0.4-0.7,0.2c-6.1-3.1-11.8-6.8-17-11
	C242,197.2,241.9,196.8,242.1,196.6z"/>
</svg>
