<svg width="100" height="102" viewBox="0 0 100 102" fill="none" xmlns="http://www.w3.org/2000/svg">
<g clip-path="url(#clip0_5_2)">
<rect width="165.648" height="21.211" transform="matrix(0.700071 0.714073 -0.700071 0.714073 11.8492 -29.58)" fill="#E47B48"/>
<path d="M46.2741 27.808C47.2004 28.7343 48.1055 28.9606 49.1591 28.9394L49.1662 27.8151C48.3459 27.7868 47.7166 27.6383 47.1085 27.0302C46.161 26.0827 46.26 24.6119 47.2287 23.6431L47.2428 23.629C48.2116 22.6603 49.6753 22.5825 50.6087 23.5159C51.1814 24.0886 51.3582 24.7462 51.3936 25.517L52.5956 25.4321C52.5744 24.5058 52.3411 23.6361 51.4218 22.7168C49.9298 21.2248 47.7237 21.3238 46.3165 22.731L46.3024 22.7451C44.8811 24.1664 44.8245 26.3584 46.2741 27.808ZM49.1777 30.5419L52.6496 34.0138L53.4416 33.2218L50.8394 30.6197L54.9972 26.4619L54.1275 25.5922L49.1777 30.5419ZM53.014 34.3782L53.905 35.2692L55.6091 34.5833L57.9497 36.9238L57.2567 38.6209L58.1759 39.5401L60.9831 32.3771L60.177 31.571L53.014 34.3782ZM56.6981 34.1307L59.5265 32.9994L58.4022 35.8349L56.6981 34.1307ZM60.5 42.0056C61.5394 43.045 62.8193 43.2218 63.7456 42.2955L63.7598 42.2814C64.58 41.4611 64.4174 40.549 63.6254 39.2479C62.8971 38.067 62.8405 37.671 63.2224 37.2892L63.2365 37.275C63.5618 36.9498 64.1204 36.9851 64.6295 37.4943C65.082 37.9468 65.3507 38.5691 65.4639 39.3469L66.5882 39.156C66.4892 38.2509 66.1356 37.4589 65.4144 36.7376C64.4315 35.7548 63.1375 35.6346 62.289 36.4831L62.2748 36.4972C61.3627 37.4094 61.6455 38.3145 62.4445 39.6226C63.1516 40.754 63.1587 41.1429 62.8052 41.4965L62.791 41.5106C62.4233 41.8783 61.8294 41.7935 61.2919 41.2561C60.6838 40.6479 60.4363 39.9338 60.3727 39.0499L59.2272 39.1489C59.2908 40.2732 59.7434 41.249 60.5 42.0056ZM64.8434 46.3491C65.8829 47.3885 67.1628 47.5653 68.0891 46.639L68.1032 46.6248C68.9235 45.8046 68.7608 44.8924 67.9689 43.5913C67.2405 42.4105 67.184 42.0145 67.5658 41.6326L67.58 41.6185C67.9052 41.2932 68.4638 41.3286 68.973 41.8377C69.4255 42.2903 69.6942 42.9125 69.8073 43.6903L70.9316 43.4994C70.8326 42.5943 70.4791 41.8024 69.7578 41.0811C68.775 40.0982 67.481 39.978 66.6324 40.8265L66.6183 40.8407C65.7061 41.7529 65.989 42.658 66.788 43.9661C67.4951 45.0975 67.5022 45.4864 67.1486 45.8399L67.1345 45.8541C66.7668 46.2218 66.1728 46.1369 65.6354 45.5995C65.0273 44.9914 64.7798 44.2772 64.7162 43.3933L63.5707 43.4923C63.6343 44.6166 64.0868 45.5924 64.8434 46.3491ZM67.6438 49.0079L68.5135 49.8777L73.4632 44.9279L72.5935 44.0582L67.6438 49.0079ZM71.9413 53.4751C72.8676 54.4014 73.7727 54.6277 74.8262 54.6065L74.8333 53.4822C74.0131 53.4539 73.3838 53.3054 72.7756 52.6973C71.8281 51.7498 71.9271 50.279 72.8958 49.3103L72.91 49.2961C73.8787 48.3274 75.3424 48.2496 76.2758 49.183C76.8486 49.7558 77.0254 50.4134 77.0607 51.1841L78.2628 51.0993C78.2416 50.173 78.0082 49.3032 77.089 48.384C75.597 46.892 73.3908 46.991 71.9837 48.3981L71.9695 48.4123C70.5483 49.8335 70.4917 52.0256 71.9413 53.4751Z" fill="white"/>
</g>
<defs>
<clipPath id="clip0_5_2">
<rect width="100" height="102" fill="white"/>
</clipPath>
</defs>
</svg>
