<svg width="33" height="36" viewBox="0 0 33 36" fill="none" xmlns="http://www.w3.org/2000/svg">
<path fill-rule="evenodd" clip-rule="evenodd" d="M17.6231 0.70972C20.584 0.707918 23.4955 1.46815 26.0771 2.91718C28.6587 4.36621 30.8235 6.45523 32.363 8.98302C31.1724 8.96607 29.9902 9.1858 28.8853 9.62946C27.7804 10.0731 26.7747 10.7318 25.9268 11.5673C25.0788 12.4028 24.4055 13.3984 23.9459 14.4963C23.4863 15.5942 23.2496 16.7724 23.2496 17.9625C23.2496 19.1525 23.4863 20.3308 23.9459 21.4286C24.4055 22.5265 25.0788 23.5221 25.9268 24.3576C26.7747 25.1931 27.7804 25.8518 28.8853 26.2955C29.9902 26.7391 31.1724 26.9589 32.363 26.9419C30.795 29.5134 28.5809 31.63 25.9408 33.0813C23.3007 34.5325 20.3265 35.2679 17.3139 35.2143C14.3013 35.1607 11.3552 34.32 8.76846 32.7757C6.18172 31.2314 4.04443 29.0374 2.56906 26.4117C1.09369 23.786 0.331622 20.8201 0.358602 17.8089C0.385592 14.7976 1.20069 11.8458 2.72288 9.24695C4.24507 6.64809 6.42134 4.49268 9.0353 2.99496C11.6493 1.49725 14.61 0.709393 17.6231 0.70972Z" fill="#FFC780"/>
<path fill-rule="evenodd" clip-rule="evenodd" d="M32.3627 8.97746C31.1721 8.96051 29.99 9.18025 28.8851 9.6239C27.7802 10.0676 26.7745 10.7263 25.9265 11.5618C25.0786 12.3973 24.4052 13.3929 23.9456 14.4908C23.486 15.5886 23.2493 16.7668 23.2493 17.9569C23.2493 19.147 23.486 20.3252 23.9456 21.4231C24.4052 22.5209 25.0786 23.5165 25.9265 24.352C26.7745 25.1875 27.7802 25.8463 28.8851 26.2899C29.99 26.7336 31.1721 26.9533 32.3627 26.9364L32.3099 27.0238C30.5554 28.6139 28.3763 29.66 26.0377 30.0348C23.6991 30.4095 21.302 30.0968 19.1381 29.1347C16.9741 28.1726 15.1366 26.6025 13.8493 24.6156C12.562 22.6287 11.8803 20.3106 11.8873 17.9435C11.8942 15.5764 12.5895 13.2624 13.8884 11.2831C15.1874 9.30372 17.034 7.74443 19.2035 6.79498C21.3731 5.84553 23.772 5.54685 26.1083 5.93531C28.4447 6.32376 30.6176 7.38259 32.3627 8.98293V8.97746Z" fill="url(#paint0_linear_101_33)"/>
<defs>
<linearGradient id="paint0_linear_101_33" x1="22.1211" y1="30.1892" x2="22.1211" y2="5.7629" gradientUnits="userSpaceOnUse">
<stop stop-color="#FFC780"/>
<stop offset="1" stop-color="#964B48"/>
</linearGradient>
</defs>
</svg>
