<svg width="48" height="48" viewBox="0 0 48 48" fill="none" xmlns="http://www.w3.org/2000/svg">
<path d="M24 48C37.2548 48 48 37.2548 48 24C48 10.7452 37.2548 0 24 0C10.7452 0 0 10.7452 0 24C0 37.2548 10.7452 48 24 48Z" fill="#00AEE9"/>
<path d="M31.7145 10.5C28.5285 10.5 25.929 13.107 25.845 16.3035V22.779C25.257 22.779 24.6705 22.863 24 22.863C23.3295 22.863 22.7415 22.863 22.155 22.947V16.302C22.155 13.107 19.4715 10.5 16.2015 10.584C13.0995 10.584 10.584 13.191 10.5 16.3035V31.779C10.584 34.974 13.1835 37.5825 16.4535 37.4985C19.6395 37.4145 22.155 34.8915 22.155 31.779V25.302C22.7415 25.302 23.3295 25.218 24 25.218C24.6705 25.218 25.257 25.218 25.845 25.134V31.695C25.929 34.89 28.5285 37.4985 31.7985 37.4145C34.9845 37.3305 37.5 34.806 37.5 31.695V16.3035C37.5 13.1085 34.9005 10.5 31.7145 10.5ZM16.3695 12.855C16.8231 12.8506 17.273 12.9368 17.6928 13.1087C18.1126 13.2805 18.4939 13.5346 18.8141 13.8558C19.1344 14.1771 19.3873 14.5591 19.5579 14.9794C19.7284 15.3997 19.8133 15.8499 19.8075 16.3035V23.1165C18.1056 23.3859 16.4438 23.8661 14.8605 24.546C14.19 24.882 13.518 25.218 12.9315 25.7235V16.3035C12.9315 14.4525 14.4405 12.855 16.3695 12.855ZM19.8075 31.779C19.8133 32.2326 19.7284 32.6828 19.5579 33.1031C19.3873 33.5234 19.1344 33.9054 18.8141 34.2267C18.4939 34.5479 18.1126 34.802 17.6928 34.9738C17.273 35.1457 16.8231 35.2319 16.3695 35.2275C15.9158 35.2319 15.4657 35.1456 15.0458 34.9737C14.6259 34.8017 14.2446 34.5476 13.9243 34.2262C13.604 33.9048 13.3512 33.5226 13.1807 33.1021C13.0102 32.6816 12.9255 32.2312 12.9315 31.7775V30.2655C12.9315 28.92 14.022 27.573 15.867 26.8155C17.124 26.2275 18.4665 25.8915 19.8915 25.6395L19.8075 31.779ZM31.7145 35.2275C31.2608 35.2319 30.8107 35.1456 30.3908 34.9737C29.9709 34.8017 29.5896 34.5476 29.2693 34.2262C28.949 33.9048 28.6962 33.5226 28.5257 33.1021C28.3552 32.6816 28.2705 32.2312 28.2765 31.7775V24.9675C29.9785 24.6976 31.6403 24.2169 33.2235 23.5365C33.894 23.2005 34.5645 22.863 35.1525 22.359V31.779C35.1497 32.6909 34.787 33.5649 34.1431 34.2107C33.4993 34.8565 32.6264 35.222 31.7145 35.2275ZM32.217 21.3495C30.96 21.939 29.6175 22.275 28.1925 22.527V16.302C28.1869 15.8485 28.2719 15.3985 28.4426 14.9784C28.6133 14.5582 28.8661 14.1764 29.1864 13.8553C29.5066 13.5342 29.8878 13.2803 30.3075 13.1085C30.7272 12.9368 31.177 12.8506 31.6305 12.855C32.0841 12.8506 32.534 12.9368 32.9538 13.1087C33.3736 13.2805 33.7549 13.5346 34.0751 13.8558C34.3954 14.1771 34.6483 14.5591 34.8189 14.9794C34.9894 15.3997 35.0743 15.8499 35.0685 16.3035V17.8185C35.1525 19.2465 34.062 20.508 32.2185 21.3495H32.217Z" fill="white"/>
</svg>
