<svg width="89" height="89" viewBox="0 0 89 89" fill="none" xmlns="http://www.w3.org/2000/svg">
<path d="M11.4218 15.9278C11.9642 15.2462 12.5388 14.5903 13.1135 13.9344C13.1392 13.9019 13.1975 13.8953 13.2233 13.8628C13.275 13.798 13.3591 13.7589 13.4106 13.6938L13.4624 13.629C13.863 13.2587 14.2892 12.8556 14.7807 12.5046C16.5195 11.1845 18.324 10.1817 20.2268 9.52191C26.3298 7.37919 33.1235 8.69967 38.4511 13.7292C45.8899 20.7021 45.2238 31.9351 39.2855 39.4013C31.7816 50.5315 18.886 66.06 36.7411 79.9704C39.9515 82.4716 42.333 84.5338 52.4456 87.4562C45.8318 88.6745 39.6993 88.2955 32.8733 86.5521C28.0451 83.8268 20.4541 77.9917 17.8714 70.1105C13.968 58.1594 24.7437 40.2931 29.9513 33.4122C37.1013 23.8891 25.5321 13.5801 17.0144 25.0891C12.5622 31.0869 4.77293 48.0595 7.47982 60.649C9.06252 67.7883 11.1721 72.9923 19.5364 80.1409C17.9854 79.2257 16.4791 78.1875 15.018 77.026C-4.41607 58.9231 -2.16139 30.9325 11.4218 15.9278Z" fill="url(#paint0_linear_2_5)"/>
<path d="M77.5782 73.0722C77.0358 73.7538 76.4612 74.4097 75.8865 75.0656C75.8607 75.0981 75.8025 75.1047 75.7767 75.1372C75.725 75.202 75.6409 75.2411 75.5894 75.3062L75.5376 75.371C75.137 75.7413 74.7108 76.1444 74.2193 76.4954C72.4805 77.8155 70.676 78.8183 68.7732 79.4781C62.6701 81.6208 55.8765 80.3003 50.5489 75.2708C43.1101 68.2979 43.7762 57.0649 49.7145 49.5987C57.2184 38.4685 70.114 22.94 52.2589 9.02956C49.0485 6.52834 46.667 4.46618 36.5544 1.54379C43.1682 0.325402 49.3007 0.704407 56.1265 2.44791C60.9549 5.17314 68.5459 11.0083 71.1286 18.8895C75.032 30.8406 64.2563 48.7068 59.0486 55.5878C51.8987 65.1109 63.4679 75.4199 71.9855 63.9109C76.4378 57.9131 84.2271 40.9405 81.5202 28.351C79.9375 21.2117 77.8279 16.0077 69.4636 8.85905C71.0146 9.7743 72.5209 10.8125 73.982 11.974C93.4161 30.0769 91.1613 58.0674 77.5782 73.0722Z" fill="url(#paint1_linear_2_5)"/>
<defs>
<linearGradient id="paint0_linear_2_5" x1="0.833319" y1="44.5" x2="88.1667" y2="44.5" gradientUnits="userSpaceOnUse">
<stop stop-color="#0082FA"/>
<stop offset="1" stop-color="#00F2FE"/>
</linearGradient>
<linearGradient id="paint1_linear_2_5" x1="0.833326" y1="44.5" x2="88.1667" y2="44.5" gradientUnits="userSpaceOnUse">
<stop stop-color="#0082FA"/>
<stop offset="1" stop-color="#00F2FE"/>
</linearGradient>
</defs>
</svg>
