<svg width="729" height="712" viewBox="0 0 729 712" fill="none" xmlns="http://www.w3.org/2000/svg">
<path d="M364.226 705.968C558.203 705.968 715.453 552.553 715.453 363.306C715.453 174.059 558.203 20.6436 364.226 20.6436C170.249 20.6436 13 174.059 13 363.306C13 552.553 170.249 705.968 364.226 705.968Z" fill="white"/>
<path d="M364.226 698.324C558.203 698.324 715.453 544.909 715.453 355.662C715.453 166.415 558.203 13 364.226 13C170.249 13 13 166.415 13 355.662C13 544.909 170.249 698.324 364.226 698.324Z" fill="black" stroke="white" stroke-width="25.8556"/>
<path fill-rule="evenodd" clip-rule="evenodd" d="M377.505 235.663C377.505 229.079 372.458 223.741 366.23 223.741C366.23 223.741 366.224 223.741 366.217 223.741C359.996 223.741 354.949 229.079 354.949 235.663C354.949 283.703 354.949 462.866 354.949 510.913C354.949 517.497 359.996 522.835 366.217 522.835C366.224 522.835 366.23 522.835 366.23 522.835C372.458 522.835 377.505 517.497 377.505 510.913C377.505 462.866 377.505 283.703 377.505 235.663Z" fill="white"/>
<path fill-rule="evenodd" clip-rule="evenodd" d="M331.959 462.505C325.735 462.499 320.683 467.832 320.678 474.417C320.678 474.417 320.678 474.424 320.678 474.431C320.673 481.008 325.716 486.35 331.94 486.355C349.256 486.371 382.212 486.4 399.528 486.415C405.754 486.42 410.806 481.087 410.811 474.51C410.811 474.503 410.811 474.496 410.811 474.496C410.817 467.911 405.773 462.569 399.547 462.564C382.23 462.549 349.275 462.52 331.959 462.505Z" fill="white"/>
<path fill-rule="evenodd" clip-rule="evenodd" d="M276.235 306.571C270.006 306.566 264.958 311.899 264.953 318.483C264.953 318.483 264.953 318.49 264.953 318.497C264.948 325.075 269.987 330.417 276.216 330.422C311.606 330.453 420.231 330.549 455.621 330.58C461.844 330.585 466.897 325.252 466.903 318.675C466.903 318.668 466.903 318.661 466.903 318.661C466.908 312.076 461.863 306.734 455.639 306.729C420.25 306.698 311.625 306.602 276.235 306.571Z" fill="white"/>
<path fill-rule="evenodd" clip-rule="evenodd" d="M313.406 246.313C308.999 241.663 301.861 241.671 297.462 246.332C297.462 246.332 297.457 246.337 297.453 246.342C293.059 250.998 293.066 258.546 297.474 263.196C321.749 288.809 394.532 365.603 418.807 391.216C423.215 395.866 430.353 395.858 434.747 391.202C434.752 391.197 434.756 391.192 434.756 391.192C439.155 386.531 439.148 378.983 434.74 374.333C410.465 348.72 337.682 271.926 313.406 246.313Z" fill="white"/>
<path fill-rule="evenodd" clip-rule="evenodd" d="M297.62 374.537C293.225 379.2 293.238 386.748 297.649 391.396C297.649 391.396 297.654 391.401 297.658 391.406C302.065 396.049 309.203 396.036 313.598 391.373C337.805 365.687 410.382 288.677 434.589 262.992C438.984 258.328 438.972 250.78 434.565 246.137C434.561 246.132 434.556 246.127 434.556 246.127C430.145 241.48 423.007 241.492 418.612 246.156C394.405 271.841 321.827 348.852 297.62 374.537Z" fill="white"/>
<path d="M364.36 659.919C535.272 659.919 673.824 524.746 673.824 358.001C673.824 191.256 535.272 56.0831 364.36 56.0831C193.448 56.0831 54.8965 191.256 54.8965 358.001C54.8965 524.746 193.448 659.919 364.36 659.919Z" stroke="#F0827D" stroke-width="14.8532"/>
</svg>
