<?xml version="1.0" encoding="UTF-8"?><svg xmlns="http://www.w3.org/2000/svg" viewBox="0 0 368.12 423.39"><defs><style>.d{fill:#f9d65d;}.e{fill:#fff;}.f{fill:#353233;}</style></defs><g id="a"/><g id="b"><g id="c"><g><path class="f" d="M364.11,201c-2.67-17.57-17.28-79-94.06-127.13C225.04,45.66,198.75,38.33,186.36,3.16c-.94-2.68-4.04-3.94-6.57-2.65-5.4,2.76-13.96,9.01-19.76,22.41-2.91,6.71-5.67,20.98-2.72,34.3h-.02c.53,2.3,1.03,5.99,1.14,8.45,.4,8.57-4.77,22.62-22.16,23.78-19.45,1.3-19.08-10.52-30.85-20.56-1.76-1.5-4.43-1.04-5.63,.94-4.37,7.22-10.56,11.7-13.53,13.57C34.44,115.96,0,173.62,0,239.33c0,101.9,81.84,183.89,183.74,184.06,101.8,.17,184.38-82.3,184.38-184.06,0-13.15-1.39-25.97-4.01-38.33Z"/><g><path class="d" d="M195.8,274.85c-53.16-23.76-86.34-71.98-88.28-120.52-.08-2.05-2.52-3.07-4.06-1.71-25.7,22.59-41.83,55.78-41.52,92.74,.54,65.8,54,119.82,119.85,121.07,53.17,1.01,98.78-31.92,116.6-78.56,.7-1.84-.94-3.75-2.85-3.27-30.97,7.79-66.33,5.18-99.74-9.75Z"/><path class="e" d="M304.19,222.29h0c-.04-.25-.09-.49-.14-.74h0c-.66-3.52-1.48-6.99-2.44-10.4-.04-.15-.09-.31-.13-.46h0c-.47-1.64-.97-3.27-1.51-4.88-.04-.12-.08-.25-.13-.37h0c-1.13-3.36-2.39-6.65-3.8-9.87-.03-.07-.06-.14-.1-.21h0c-.68-1.55-1.39-3.09-2.13-4.61h0s-.04-.08-.06-.12c-.77-1.56-1.57-3.11-2.4-4.64h0s-.04-.09-.07-.13h0c-.85-1.56-1.74-3.1-2.66-4.62-.03-.04-.05-.09-.08-.13h0c-.85-1.4-1.73-2.78-2.63-4.14h0c-.1-.16-.2-.31-.31-.47h0c-1.9-2.85-3.93-5.6-6.06-8.27-.13-.16-.25-.32-.38-.48h0c-1.13-1.4-2.29-2.78-3.48-4.13h0c-1.14-1.31-2.32-2.58-3.51-3.83-.05-.05-.09-.1-.14-.15h0c-1.08-1.13-2.19-2.23-3.32-3.32h0c-.16-.16-.33-.31-.49-.47h0c-1.15-1.1-2.33-2.18-3.53-3.23-.14-.12-.28-.24-.42-.36h0c-1.22-1.06-2.46-2.11-3.72-3.12h0c-.12-.09-.23-.18-.35-.28h0c-1.33-1.07-2.69-2.11-4.07-3.12-.03-.02-.06-.04-.08-.06h0c-1.39-1.02-2.81-2.01-4.25-2.97l-.06-.04h0c-2.88-1.92-5.85-3.72-8.9-5.4h0c-.12-.06-.23-.13-.35-.19-1.45-.79-2.92-1.56-4.41-2.29h0c-.2-.1-.39-.2-.59-.29h0c-3.1-1.51-6.28-2.9-9.52-4.15-.19-.07-.37-.14-.56-.22h0c-1.68-.64-3.37-1.24-5.09-1.81l-.1-.03h0c-1.6-.53-3.21-1.02-4.83-1.48-.15-.04-.29-.08-.44-.12h0c-1.73-.49-3.48-.93-5.25-1.34l-.1-.02h0c-1.67-.39-3.36-.74-5.06-1.06-.11-.02-.22-.04-.33-.06h0c-1.77-.33-3.56-.62-5.35-.87h-.04c-2.79-.39-5.61-.69-8.46-.88,.48,.04,.94,.09,1.41,.13h0c1.12,.1,2.2,.21,3.26,.34h.01c1.05,.12,2.08,.25,3.07,.4h.05c.99,.15,1.94,.3,2.88,.46h.08c.92,.18,1.82,.35,2.69,.53,.04,0,.08,.02,.11,.02,.86,.18,1.69,.37,2.5,.58,.06,.01,.11,.03,.16,.04,.79,.2,1.56,.41,2.31,.63,.07,.02,.14,.04,.2,.06,.73,.22,1.44,.45,2.14,.69,.08,.03,.16,.06,.25,.09,.67,.24,1.33,.48,1.96,.74,.1,.04,.2,.09,.3,.13,.61,.25,1.21,.51,1.79,.79,.12,.06,.23,.12,.35,.17,.55,.27,1.09,.54,1.62,.82,.14,.08,.27,.16,.4,.23,.49,.28,.98,.56,1.45,.85,.16,.1,.31,.21,.47,.31,.43,.28,.87,.57,1.28,.87,.19,.14,.37,.28,.55,.42,.37,.28,.75,.56,1.11,.85,.22,.18,.43,.38,.65,.57,.31,.27,.62,.53,.91,.8,.28,.27,.56,.55,.83,.82,.22,.22,.44,.43,.65,.65,.48,.51,.95,1.04,1.41,1.58,.68,.81,4.15,5.24,6.03,13.01,2.27,9.36,1.87,19.09,4.01,28.46,.36,1.58,.75,3.11,1.14,4.62,.11,.4,.22,.8,.33,1.2,.32,1.17,.65,2.31,.99,3.44,.1,.35,.21,.69,.31,1.04,11,35.46,33.03,52.3,62.58,74.86,1.01-6.32,1.53-12.8,1.53-19.4,0-7.52-.69-14.89-1.99-22.04Z"/><path class="d" d="M305.02,227.42q-4.32-9.99-120.16-51.83c-58.31-21.06-69.13-41.4-26.93-50.6,2.05-.45,4.13-.84,6.22-1.18,6.45-1.05,13.08-1.6,19.83-1.6,61.76,0,112.8,45.77,121.04,105.21"/></g></g></g></g></svg>