<svg width="48" height="48" viewBox="0 0 48 48" fill="none" xmlns="http://www.w3.org/2000/svg">
<path d="M36.3959 32.8086L32.2383 39.1601L41.1409 41.6113L43.6912 32.9474L36.3959 32.8086Z" fill="#E27625" stroke="#E27625" stroke-width="0.25" stroke-linecap="round" stroke-linejoin="round"/>
<path d="M26.9219 36.5863L32.2387 39.1608L31.5122 33.0098L26.9219 36.5863Z" fill="#E27625" stroke="#E27625" stroke-width="0.25" stroke-linecap="round" stroke-linejoin="round"/>
<path d="M32.2387 39.1604L26.9219 36.5859L27.3546 40.0391L27.3082 41.5037L32.2387 39.1604Z" fill="#D5BFB2" stroke="#D5BFB2" stroke-width="0.25" stroke-linecap="round" stroke-linejoin="round"/>
<path d="M4.32422 32.9474L6.85898 41.6113L15.7462 39.1601L11.604 32.8086L4.32422 32.9474Z" fill="#E27625" stroke="#E27625" stroke-width="0.25" stroke-linecap="round" stroke-linejoin="round"/>
<path d="M15.7461 39.1608L21.0783 36.5863L16.488 33.0098L15.7461 39.1608Z" fill="#E27625" stroke="#E27625" stroke-width="0.25" stroke-linecap="round" stroke-linejoin="round"/>
<path d="M15.7461 39.1604L20.692 41.5037L20.6611 40.0391L21.0783 36.5859L15.7461 39.1604Z" fill="#D5BFB2" stroke="#D5BFB2" stroke-width="0.25" stroke-linecap="round" stroke-linejoin="round"/>
<path d="M27.3072 41.5034L27.3534 40.0389L26.9517 39.6997H21.0475L20.6611 40.0389L20.692 41.5034L15.7461 39.1602L17.4771 40.5784L20.9857 42.9988H26.998L30.5219 40.5784L32.2375 39.1602L27.3072 41.5034Z" fill="#C0AC9D" stroke="#C0AC9D" stroke-width="0.25" stroke-linecap="round" stroke-linejoin="round"/>
<path d="M31.4805 32.8086L32.2379 39.1601L36.3955 32.9474L31.4805 32.8086Z" fill="#CC6228" stroke="#CC6228" stroke-width="0.25" stroke-linecap="round" stroke-linejoin="round"/>
<path d="M15.7457 39.1601L16.5185 32.8086L11.6035 32.9474L15.7457 39.1601Z" fill="#CC6228" stroke="#CC6228" stroke-width="0.25" stroke-linecap="round" stroke-linejoin="round"/>
<path d="M27.2148 30.7267L28.5132 27.998L31.6507 29.4318L27.2148 30.7267Z" fill="#233447" stroke="#233447" stroke-width="0.25" stroke-linecap="round" stroke-linejoin="round"/>
<path d="M20.7857 30.7267L16.3652 29.4318L19.4873 27.998L20.7857 30.7267Z" fill="#233447" stroke="#233447" stroke-width="0.25" stroke-linecap="round" stroke-linejoin="round"/>
<path d="M42.0225 6L26.3965 17.5621L29.3023 10.7482L42.0225 6Z" fill="#E17726" stroke="#E17726" stroke-width="0.25" stroke-linecap="round" stroke-linejoin="round"/>
<path d="M5.97852 6L21.4654 17.6701L18.6988 10.7482L5.97852 6Z" fill="#E27625" stroke="#E27625" stroke-width="0.25" stroke-linecap="round" stroke-linejoin="round"/>
<path d="M15.2678 22.0798L12.7949 25.8106L21.6048 26.2114L21.3112 16.7305L15.2678 22.0798Z" fill="#E27625" stroke="#E27625" stroke-width="0.25" stroke-linecap="round" stroke-linejoin="round"/>
<path d="M32.7314 22.0784L26.5955 16.6211L26.3945 26.21L35.2044 25.8092L32.7314 22.0784Z" fill="#E27625" stroke="#E27625" stroke-width="0.25" stroke-linecap="round" stroke-linejoin="round"/>
<path d="M35.2044 25.8105L26.3945 26.2114L27.2137 30.7284L28.512 27.9996L31.6496 29.4334L35.2044 25.8105Z" fill="#CC6228" stroke="#CC6228" stroke-width="0.25" stroke-linecap="round" stroke-linejoin="round"/>
<path d="M26.3957 26.2109L25.9629 29.0168L26.1793 36.0619L27.2148 30.728L26.3957 26.2109Z" fill="#E27525" stroke="#E27525" stroke-width="0.25" stroke-linecap="round" stroke-linejoin="round"/>
<path d="M31.6508 29.4334L31.5117 33.01L35.2057 25.8105L31.6508 29.4334Z" fill="#E27525" stroke="#E27525" stroke-width="0.25" stroke-linecap="round" stroke-linejoin="round"/>
<path d="M27.2152 30.7286L26.1797 36.0625L26.9216 36.5867L31.5121 33.0102L31.6511 29.4336L27.2152 30.7286Z" fill="#F5841F" stroke="#F5841F" stroke-width="0.25" stroke-linecap="round" stroke-linejoin="round"/>
<path d="M16.3652 29.4334L19.4873 27.9996L20.7857 30.7284L21.6048 26.2114L12.7949 25.8105L16.3652 29.4334Z" fill="#CC6228" stroke="#CC6228" stroke-width="0.25" stroke-linecap="round" stroke-linejoin="round"/>
<path d="M21.6044 26.2109L20.7852 30.728L21.8207 36.0619L22.0526 29.0321L21.6044 26.2109Z" fill="#E27525" stroke="#E27525" stroke-width="0.25" stroke-linecap="round" stroke-linejoin="round"/>
<path d="M12.7949 25.8105L16.4889 33.01L16.3652 29.4334L12.7949 25.8105Z" fill="#E27525" stroke="#E27525" stroke-width="0.25" stroke-linecap="round" stroke-linejoin="round"/>
<path d="M16.3652 29.4336L16.489 33.0102L21.0793 36.5867L21.8212 36.0625L20.7857 30.7286L16.3652 29.4336Z" fill="#F5841F" stroke="#F5841F" stroke-width="0.25" stroke-linecap="round" stroke-linejoin="round"/>
<path d="M26.9217 36.5866L26.1798 36.0625H21.8213L21.0795 36.5866L20.6621 40.0399L21.0485 39.7007H26.9527L27.3546 40.0399L26.9217 36.5866Z" fill="#161616" stroke="#161616" stroke-width="0.25" stroke-linecap="round" stroke-linejoin="round"/>
<path d="M42.6869 18.3175L44.0007 11.9352L42.0223 6L26.9219 17.1768L32.7332 22.0791L40.9403 24.4686L42.7487 22.3566L41.9605 21.7862L43.2124 20.6454L42.2541 19.9054L43.5061 18.9496L42.6869 18.3175Z" fill="#763E1A" stroke="#763E1A" stroke-width="0.25" stroke-linecap="round" stroke-linejoin="round"/>
<path d="M40.9398 24.4676L32.7327 22.0781L35.2057 25.8089L31.5117 33.0082L36.3958 32.9465H43.691L40.9398 24.4676Z" fill="#F5841F" stroke="#F5841F" stroke-width="0.25" stroke-linecap="round" stroke-linejoin="round"/>
<path d="M4 11.9352L5.32921 18.3175L4.47914 18.9496L5.74652 19.9054L4.78825 20.6454L6.04018 21.7862L5.25193 22.3566L7.06028 24.4686L15.2674 22.0791L21.0788 17.1768L5.97836 6L4 11.9352Z" fill="#763E1A" stroke="#763E1A" stroke-width="0.25" stroke-linecap="round" stroke-linejoin="round"/>
<path d="M15.267 22.0781L7.05992 24.4676L4.32422 32.9465H11.604L16.488 33.0082L12.7941 25.8089L15.267 22.0781Z" fill="#F5841F" stroke="#F5841F" stroke-width="0.25" stroke-linecap="round" stroke-linejoin="round"/>
<path d="M26.3963 26.2105L26.9218 17.1765L29.302 10.748H18.6992L21.0794 17.1765L21.6049 26.2105L21.8058 29.0471L21.8213 36.0615H26.1799L26.1953 29.0471L26.3963 26.2105Z" fill="#F5841F" stroke="#F5841F" stroke-width="0.25" stroke-linecap="round" stroke-linejoin="round"/>
</svg>
