<svg width="30" height="30" viewBox="0 0 304 303" fill="none" xmlns="http://www.w3.org/2000/svg">
    <path
        d="M301.782 70.3789C301.782 70.3789 298.038 85.7898 271.819 85.7898C263.022 85.7898 260.022 88.4059 258.027 90.785C256.588 92.4937 255.656 94.0879 253.473 94.5049C249.99 93.8345 249.704 90.1964 245.461 87.8418C243.327 86.6564 240.188 85.7898 235.127 85.7898C208.908 85.7898 203.488 70.3789 203.488 70.3789C197.585 92.8453 216.266 109.057 227.966 117.241C233.844 121.353 236.018 129.038 233.157 135.62C219.528 166.973 203.897 176.751 182.665 176.751C178.814 176.751 174.833 176.448 170.696 175.933C169.568 175.794 168.431 175.631 167.279 175.459C166.51 175.344 165.742 175.222 164.965 175.091C164.188 174.96 163.412 174.829 162.619 174.69C155.539 173.423 148.058 171.698 140.136 169.851C139.359 169.671 138.574 169.483 137.789 169.303C126.123 166.572 113.516 163.653 99.8714 161.585C98.5224 161.381 97.1898 161.193 95.8817 161.013C95.5547 160.964 95.2277 160.923 94.9007 160.882C94.2548 160.8 93.6089 160.718 92.9631 160.645C92.6442 160.604 92.3254 160.571 92.0065 160.53C91.3688 160.457 90.7393 160.391 90.1098 160.318C88.859 160.187 87.6244 160.064 86.4063 159.958C80.945 159.484 75.8599 159.263 71.1344 159.263C61.9533 159.263 54.1211 160.089 47.4826 161.405C46.7795 161.544 46.1009 161.683 45.4306 161.83C44.7602 161.977 44.0979 162.133 43.4521 162.296C42.4792 162.533 41.539 162.779 40.6233 163.04C40.0183 163.212 39.4134 163.384 38.8329 163.564C38.2443 163.743 37.672 163.923 37.116 164.111C36.5519 164.299 36.0042 164.487 35.4646 164.675C35.1948 164.774 34.9332 164.863 34.6716 164.97C34.1483 165.166 33.6333 165.362 33.1346 165.558C32.8811 165.656 32.6358 165.755 32.3906 165.861C31.9001 166.065 31.4177 166.27 30.9517 166.474C30.7228 166.58 30.4857 166.687 30.2568 166.785C29.7989 166.997 29.3575 167.202 28.9242 167.406C25.237 169.188 22.3347 171.052 20.0946 172.753C19.833 172.949 19.5795 173.145 19.3343 173.341C18.9255 173.668 18.5331 173.996 18.1733 174.306C18.1079 174.372 18.0425 174.421 17.9771 174.478C17.969 174.486 17.9526 174.494 17.9444 174.502C17.9199 174.519 17.9035 174.543 17.879 174.56C17.83 174.601 17.7891 174.641 17.74 174.682C17.6092 174.805 17.4702 174.919 17.3476 175.034C15.361 176.832 13.9711 178.386 12.8674 180.323C11.1996 183.242 10.6519 185.261 10.6519 185.261C17.1759 200.141 26.496 213.827 38.3178 225.657C38.3832 225.722 38.4568 225.787 38.5222 225.853C38.5222 225.853 38.5304 225.861 38.5386 225.869C38.604 225.943 38.6694 226.008 38.7348 226.074C62.6727 250.028 94.1812 263.665 127.856 264.777C130.301 270.197 135.231 277.579 143.758 276.639C143.758 276.639 149.186 291.723 163.894 288.371C163.894 288.371 165.178 302.719 197.495 302.515C197.495 302.515 176.934 291.609 176.828 272.772C176.795 267.417 175.879 262.569 173.999 258.187C193.056 251.884 210.535 241.231 225.219 226.728C225.439 226.507 225.66 226.294 225.881 226.074C234.351 217.604 241.529 208.177 247.325 198.048C257.471 180.307 263.357 160.383 264.453 139.577C264.469 139.29 264.486 139.004 264.494 138.718C264.788 136.527 265.017 134.54 265.205 132.791C265.679 128.294 268.197 124.296 271.983 121.827C285.521 112.998 309.574 91.2101 301.758 70.3871H301.766L301.782 70.3789Z"
        fill="white"></path>
    <path
        d="M10.8162 132.427C10.8162 99.9458 23.4556 69.4184 46.4043 46.4452C52.9283 39.9129 60.0738 34.2146 67.6934 29.4074C92.596 13.694 125.609 30.5274 126.467 59.9593C126.484 60.5234 126.492 61.0957 126.492 61.6762V153.357L138.125 155.499V61.6762C138.125 61.0875 138.134 60.5071 138.15 59.9266C139.033 30.5029 172.013 13.6777 196.924 29.3747C204.56 34.1901 211.713 39.8966 218.254 46.437C226.372 54.5635 233.199 63.6383 238.635 73.4081C243.5 73.7514 247.596 74.8388 251.095 76.6865C251.757 77.038 252.37 77.4059 252.943 77.782C246.451 63.4421 237.352 50.2468 225.898 38.7847C212.645 25.524 197.071 15.419 180.099 8.8541C179.248 8.52708 178.398 8.20823 177.548 7.89756C175.291 7.08001 173.01 6.31968 170.705 5.62476C166.29 4.29215 161.81 3.19663 157.256 2.33003C150.92 1.12822 144.462 0.38425 137.921 0.122633C136.065 0.0408776 134.201 0 132.329 0C130.457 0 128.568 0.0408776 126.696 0.122633C120.18 0.392425 113.754 1.12822 107.451 2.32185C102.889 3.18028 98.3924 4.28398 93.9777 5.61659C91.6558 6.31151 89.3585 7.07183 87.0857 7.90574C86.2354 8.21641 85.377 8.53525 84.5349 8.86227C67.5707 15.4272 52.0045 25.524 38.752 38.7847C13.7676 63.8018 0 97.0599 0 132.427C0 145.197 1.79044 157.681 5.26504 169.618C6.32786 168.359 7.80763 166.789 9.76975 165.072C11.1923 163.829 12.6966 162.644 14.299 161.516C12.0017 152.106 10.8162 142.36 10.8162 132.435V132.427Z"
        fill="#3CCD64"></path>
</svg>