<svg xmlns="http://www.w3.org/2000/svg" xmlns:xlink="http://www.w3.org/1999/xlink" viewBox="0 0 80 80">
  <defs>
    <linearGradient id="b152b021-6947-4edd-93f4-e893ffefafc0" x1="32.39" x2="43.15" y1="705.582" y2="770.835" gradientTransform="matrix(1 0 0 -1 0 783.179)" gradientUnits="userSpaceOnUse">
      <stop offset="0" stop-color="#81ffff"/>
      <stop offset=".62" stop-color="#fff" stop-opacity="0"/>
    </linearGradient>
    <linearGradient id="bbe8d463-5c6d-4cc8-9217-fce78e408f23" x1="60.964" x2="33.657" y1="760.364" y2="735.733" gradientTransform="matrix(1 0 0 -1 0 783.179)" gradientUnits="userSpaceOnUse">
      <stop offset=".289" stop-color="#fff"/>
      <stop offset=".78" stop-color="#fff" stop-opacity="0"/>
    </linearGradient>
    <linearGradient id="f415d5be-1af9-47e0-b4c8-63aec3f4a7db" x1="6.823" x2="68.658" y1="722.795" y2="722.795" gradientTransform="matrix(1 0 0 -1 0 783.179)" gradientUnits="userSpaceOnUse">
      <stop offset="0" stop-color="#0002e9"/>
      <stop offset=".995" stop-color="#ff00c7"/>
    </linearGradient>
    <linearGradient xlink:href="#bbe8d463-5c6d-4cc8-9217-fce78e408f23" id="fc425693-9cfa-4167-88c9-01fb6d17d6a8" x1="71.732" x2="37.556" y1="735.572" y2="703.821"/>
    <linearGradient id="a1f36d6f-b7d6-497a-896e-5d8af6cc524e" x1="6.823" x2="39.864" y1="722.795" y2="722.795" gradientTransform="matrix(1 0 0 -1 0 783.179)" gradientUnits="userSpaceOnUse">
      <stop offset="0" stop-color="#000292"/>
      <stop offset=".995" stop-color="#7d00c7"/>
    </linearGradient>
    <linearGradient id="e04654fc-d4ce-4d0c-8250-d03576f66454" x1="6.891" x2="68.602" y1="735.618" y2="735.618" gradientTransform="matrix(1 0 0 -1 0 783.179)" gradientUnits="userSpaceOnUse">
      <stop offset="0" stop-color="#000292"/>
      <stop offset=".995" stop-color="#be00c7"/>
    </linearGradient>
    <linearGradient xlink:href="#bbe8d463-5c6d-4cc8-9217-fce78e408f23" id="f6213529-0f11-4686-9838-fe3ede3b1d6b" x1="67.667" x2="63.121" y1="769.218" y2="761.956"/>
    <linearGradient xlink:href="#bbe8d463-5c6d-4cc8-9217-fce78e408f23" id="a325b10b-fbc7-4030-a978-24d83fa8959d" x1="33.974" x2="36.435" y1="715.176" y2="715.176"/>
    <linearGradient xlink:href="#bbe8d463-5c6d-4cc8-9217-fce78e408f23" id="b5c57a75-f281-4f40-9c46-550e56fe8a43" x1="42.46" x2="44.921" y1="716.006" y2="716.006"/>
    <linearGradient xlink:href="#bbe8d463-5c6d-4cc8-9217-fce78e408f23" id="e07c620d-59a7-4daf-a73b-b67d5eb3d397" x1="38.693" x2="40.541" y1="711.724" y2="711.724"/>
    <linearGradient xlink:href="#bbe8d463-5c6d-4cc8-9217-fce78e408f23" id="abdecc17-eaf4-4a2f-858d-bb26239712a7" x1="46.172" x2="48.02" y1="712.612" y2="712.612"/>
    <linearGradient xlink:href="#bbe8d463-5c6d-4cc8-9217-fce78e408f23" id="a0d67e9c-d82f-411b-b659-28727fdf9bb6" x1="26.024" x2="30.043" y1="716.771" y2="716.771"/>
    <linearGradient xlink:href="#bbe8d463-5c6d-4cc8-9217-fce78e408f23" id="faf5f726-8135-4b1b-8842-73b0a0bb1a25" x1="49.894" x2="53.913" y1="723.457" y2="723.457"/>
    <radialGradient id="b2ae0e1e-d984-4f49-83ff-2a7994fa1619" cx="-859.351" cy="921.577" r="1" gradientTransform="matrix(25.999 0 0 -26.446 22415.801 24383.273)" gradientUnits="userSpaceOnUse">
      <stop offset="0" stop-color="#ffeaff" stop-opacity=".6"/>
      <stop offset=".681" stop-color="#a087c9"/>
      <stop offset="1" stop-color="#10002f"/>
    </radialGradient>
    <radialGradient xlink:href="#b2ae0e1e-d984-4f49-83ff-2a7994fa1619" id="ae55ca0a-3990-42e1-a0ea-0761dab1df1f" cx="-894.62" cy="927.497" gradientTransform="matrix(63.61 0 0 -64.705 56965.762 60035.845)"/>
  </defs>
  <path fill="#5e12a0" d="M76.453 14.142c-.814-3.136-3.432-6.272-8.144-9.763C64.528 1.6 60.515 0 57.315 0a8.835 8.835 0 0 0-1.8.178 5.293 5.293 0 0 0-3.548 2.958 7.842 7.842 0 0 0-.582 5.976 14.9 14.9 0 0 0 .872 1.6 21.8 21.8 0 0 1-5.06 2.485A34.587 34.587 0 0 1 66.1 28.994l.058-.71a27.752 27.752 0 0 1 1.571-6.509 8.7 8.7 0 0 0 2.443.355 6.231 6.231 0 0 0 5.177-2.485 6.532 6.532 0 0 0 1.104-5.503Z"/>
  <path fill="url(#b2ae0e1e-d984-4f49-83ff-2a7994fa1619)" d="M68.077 20.059c5.293 1.479 7.445-2.663 6.747-5.444-.756-2.781-3.2-5.621-7.5-8.816s-8.668-4.5-11.46-3.906-3.61 4.907-2.911 6.568a13.468 13.468 0 0 0 1.8 2.663c-1.1.769-2.153 1.361-3.025 1.894a34.5 34.5 0 0 1 13.498 10.946 29.878 29.878 0 0 1 1.513-4.26 6.4 6.4 0 0 1 1.338.355Z"/>
  <path fill="url(#ae55ca0a-3990-42e1-a0ea-0761dab1df1f)" d="M37.77 78.047c17.959 0 32.517-14.809 32.517-33.077S55.729 11.893 37.77 11.893 5.253 26.7 5.253 44.97 19.811 78.047 37.77 78.047Z"/>
  <path fill="#a98698" d="M72.149 11.893c-4.421-4.734-8.144-5.976-12.623-6.982-3.49-.829-2.56-2.84 1.687-2.426a10.463 10.463 0 0 0-5.352-.592c-2.792.592-3.607 4.911-2.908 6.568a13.468 13.468 0 0 0 1.8 2.663 44.331 44.331 0 0 1-4.014 2.426c.524.237 1.163.532 1.92.947a30.717 30.717 0 0 1 4.13 2.84C53.534 14.5 54.232 13.2 58.711 10c1.4-1.006 3.956-.888 6.341.355a23.847 23.847 0 0 1 5.177 4.378l-2.676 5.208.524.177a6.259 6.259 0 0 0 4.072-.059c1.221-.769 4.421-3.373 0-8.166Z" opacity=".6"/>
  <path fill="#5e12a0" d="M59.468 7.751a26.951 26.951 0 0 1 4.537 2.549 32.4 32.4 0 0 1 5.352 4.438 31.464 31.464 0 0 0-4.189 9.053c.407.592.873 1.183 1.28 1.775a48.559 48.559 0 0 1 2.036-5.866 3.525 3.525 0 0 0 .814.059 3.3 3.3 0 0 0 2.153-.651 2.426 2.426 0 0 0 .93-2.189c0-1.124-.872-2.544-2.675-4.26a42.736 42.736 0 0 0-4.77-3.846c-5-3.373-8.493-4.32-10.064-2.722a3.024 3.024 0 0 0-.582 3.313c-1.861 1.243-3.432 2.13-4.479 2.722.7.237 1.338.533 2.036.829a52.192 52.192 0 0 0 7.621-5.204Zm10.994 8.462a1.614 1.614 0 0 1 .232.769 1 1 0 0 1-.29.829 2.049 2.049 0 0 1-1.106.3 14.758 14.758 0 0 1 1.164-1.898ZM56.094 7.4a1.735 1.735 0 0 1 1.4-.177 33.22 33.22 0 0 1-1.745 1.3 1.17 1.17 0 0 1 .345-1.123Z"/>
  <path fill="#5e12a0" d="M37.77 9.941c-19.022 0-34.437 15.68-34.437 35.029S18.748 80 37.77 80s34.437-15.681 34.437-35.03S56.734 9.941 37.77 9.941Zm0 68.106c-17.97 0-32.517-14.793-32.517-33.077S19.8 11.893 37.77 11.893 70.287 26.686 70.287 44.97 55.686 78.047 37.77 78.047Z"/>
  <path fill="url(#b152b021-6947-4edd-93f4-e893ffefafc0)" d="M37.77 78.048c17.959 0 32.517-14.809 32.517-33.077S55.729 11.894 37.77 11.894 5.253 26.7 5.253 44.971 19.811 78.048 37.77 78.048Z" opacity=".6"/>
  <path fill="#a98698" d="M37.537 74.024C19.8 71.125 7.754 54.142 10.663 36.1a33.027 33.027 0 0 1 10.819-19.7A33.013 33.013 0 0 0 5.66 39.7c-2.85 18.048 9.191 35.03 26.875 37.929A32.039 32.039 0 0 0 59 70a32.143 32.143 0 0 1-21.463 4.024Z" opacity=".6"/>
  <path fill="url(#bbe8d463-5c6d-4cc8-9217-fce78e408f23)" d="M42.947 12.367A32 32 0 0 0 20.261 17.1l-.233.237a42.362 42.362 0 0 1 6.166-2.9C16.771 20 13.862 26.332 13.862 26.332c3.665-7.219 14.426-12.308 22.861-12.663s13.961 2.189 20.709 7.692c6.747 5.562 10.819 16.923 10.412 25.917a36.27 36.27 0 0 1-5 16.273c3.2-4.2 5.119-7.279 6.341-10.415a23.236 23.236 0 0 0 .582-2.9c2.905-17.987-9.078-34.969-26.82-37.869Z" opacity=".6"/>
  <path fill="url(#f415d5be-1af9-47e0-b4c8-63aec3f4a7db)" d="M68.658 44.675c0 17.337-13.844 31.42-30.888 31.42S6.823 62.012 6.823 44.675Z"/>
  <path fill="url(#fc425693-9cfa-4167-88c9-01fb6d17d6a8)" d="M66.215 44.675c0 16.923-13.146 30.769-29.666 31.42h1.221c17.044 0 30.888-14.083 30.888-31.42Z" opacity=".6"/>
  <path fill="url(#a1f36d6f-b7d6-497a-896e-5d8af6cc524e)" d="M11.186 44.675H6.823c0 17.337 13.845 31.42 30.889 31.42.756 0 1.454 0 2.152-.059a31.29 31.29 0 0 1-28.678-31.361Z" opacity=".7"/>
  <path fill="url(#e04654fc-d4ce-4d0c-8250-d03576f66454)" d="M68.6 44.97c0-3.609-6.166-5.68-14.368-6.39a48.6 48.6 0 0 0-18.789 2.248 36.547 36.547 0 0 1-15.182 1.006C11.593 40.828 6.823 40.71 6.823 44.97c0 6.154 12.333 13.847 30.831 11.184 9.365-1.361 14.193-4.142 19.719-6.036C63.365 48.107 68.6 48.166 68.6 44.97Z"/>
  <path fill="#fff" d="M47.892 30.059a5.326 5.326 0 1 0-5.236-5.325 5.281 5.281 0 0 0 5.236 5.325Zm8.551 3.964a2.249 2.249 0 1 0-2.211-2.248 2.229 2.229 0 0 0 2.211 2.248Z"/>
  <path fill="url(#f6213529-0f11-4686-9838-fe3ede3b1d6b)" d="M64.354 20.474h-.117a.7.7 0 0 1-.523-.829 13.678 13.678 0 0 1 2.85-5.444.645.645 0 0 1 .931-.059.672.672 0 0 1 .058.947 12.854 12.854 0 0 0-2.559 4.852.627.627 0 0 1-.64.533Z" opacity=".6"/>
  <path fill="#fff" d="M35.622 69.645a1.657 1.657 0 1 0-1.629-1.657 1.643 1.643 0 0 0 1.629 1.657Z" opacity=".2"/>
  <g opacity=".4">
    <path fill="url(#a325b10b-fbc7-4030-a978-24d83fa8959d)" d="M34.687 69.055a1.7 1.7 0 0 1 0-2.367c.116-.118.233-.177.349-.3a1.209 1.209 0 0 0-.582.356 1.7 1.7 0 0 0 0 2.366 1.657 1.657 0 0 0 1.978.3 1.6 1.6 0 0 1-1.745-.355Z" opacity=".6"/>
  </g>
  <path fill="#fff" d="M36.2 67.515a.355.355 0 1 0-.349-.355.353.353 0 0 0 .349.355Z" opacity=".3"/>
  <path fill="#fff" d="M44.114 68.817a1.657 1.657 0 1 0-1.628-1.657 1.643 1.643 0 0 0 1.628 1.657Z" opacity=".2"/>
  <g opacity=".4">
    <path fill="url(#b5c57a75-f281-4f40-9c46-550e56fe8a43)" d="M43.18 68.226a1.7 1.7 0 0 1 0-2.367c.116-.118.233-.177.349-.3a1.207 1.207 0 0 0-.582.355 1.7 1.7 0 0 0 0 2.367 1.657 1.657 0 0 0 1.978.3 1.6 1.6 0 0 1-1.745-.355Z" opacity=".6"/>
  </g>
  <path fill="#fff" d="M44.692 66.687a.355.355 0 1 0-.349-.355.352.352 0 0 0 .349.355Z" opacity=".3"/>
  <path fill="#fff" d="M39.922 72.663A1.243 1.243 0 1 0 38.7 71.42a1.233 1.233 0 0 0 1.222 1.243Z" opacity=".2"/>
  <g opacity=".4">
    <path fill="url(#e07c620d-59a7-4daf-a73b-b67d5eb3d397)" d="M39.224 72.191a1.3 1.3 0 0 1 0-1.775c.059-.059.175-.118.233-.177a1.045 1.045 0 0 0-.407.3 1.3 1.3 0 0 0 0 1.776 1.209 1.209 0 0 0 1.512.177 1.25 1.25 0 0 1-1.338-.301Z" opacity=".6"/>
  </g>
  <path fill="#fff" d="M40.33 71.006a.237.237 0 1 0-.233-.237.235.235 0 0 0 .233.237Z" opacity=".3"/>
  <path fill="#fff" d="M47.426 71.775a1.243 1.243 0 1 0-1.221-1.243 1.232 1.232 0 0 0 1.221 1.243Z" opacity=".2"/>
  <g opacity=".4">
    <path fill="url(#abdecc17-eaf4-4a2f-858d-bb26239712a7)" d="M46.728 71.3a1.3 1.3 0 0 1 0-1.775c.058-.059.175-.118.233-.177a1.03 1.03 0 0 0-.407.3 1.3 1.3 0 0 0 0 1.775 1.209 1.209 0 0 0 1.512.177 1.25 1.25 0 0 1-1.338-.3Z" opacity=".6"/>
  </g>
  <path fill="#fff" d="M47.833 70.118a.237.237 0 1 0-.232-.237.235.235 0 0 0 .232.237Z" opacity=".3"/>
  <path fill="#fff" d="M28.7 69.053a2.722 2.722 0 1 0-2.676-2.722 2.7 2.7 0 0 0 2.676 2.722Z" opacity=".2"/>
  <g opacity=".4">
    <path fill="url(#a0d67e9c-d82f-411b-b659-28727fdf9bb6)" d="M27.185 68.047a2.747 2.747 0 0 1 0-3.846 2.071 2.071 0 0 1 .581-.414 3.108 3.108 0 0 0-.93.591 2.748 2.748 0 0 0 0 3.847 2.612 2.612 0 0 0 3.257.414 2.56 2.56 0 0 1-2.908-.592Z" opacity=".6"/>
  </g>
  <path fill="#fff" d="M29.626 65.5a.592.592 0 1 0-.581-.592.587.587 0 0 0 .581.592Z" opacity=".3"/>
  <path fill="#fff" d="M52.605 62.367a2.722 2.722 0 1 0-2.676-2.722 2.7 2.7 0 0 0 2.676 2.722Z" opacity=".2"/>
  <g opacity=".4">
    <path fill="url(#faf5f726-8135-4b1b-8842-73b0a0bb1a25)" d="M51.033 61.361a2.747 2.747 0 0 1 0-3.846 2.062 2.062 0 0 1 .582-.414 3.125 3.125 0 0 0-.931.591 2.747 2.747 0 0 0 0 3.846 2.612 2.612 0 0 0 3.257.415 2.579 2.579 0 0 1-2.908-.592Z" opacity=".6"/>
  </g>
  <path fill="#fff" d="M53.534 58.817a.592.592 0 1 0-.582-.592.587.587 0 0 0 .582.592Z" opacity=".3"/>
</svg>
