<svg width="48" height="48" viewBox="0 0 48 48" fill="none" xmlns="http://www.w3.org/2000/svg">
<path d="M43.648 10.0943C43.1995 8.3898 41.7641 6.68525 39.2521 4.80128C37.1887 3.36588 35.0356 2.46875 33.3311 2.46875C32.9722 2.46875 32.7031 2.46875 32.3442 2.55846C31.5368 2.73789 30.9088 3.27617 30.4603 4.17329C29.922 5.16013 29.8323 6.59554 30.1911 7.40296C30.2808 7.67209 30.4603 7.94123 30.6397 8.30008C29.0249 9.28692 28.038 9.64578 27.9483 9.64578C32.2545 11.0812 35.843 14.1314 38.0858 18.1685V17.8096C38.1756 16.7331 38.5344 15.5668 38.8933 14.3108C39.3418 14.4006 39.7904 14.4903 40.239 14.4903C41.4052 14.4903 42.3921 14.0417 43.0201 13.1446C43.648 12.1577 43.9172 11.0812 43.648 10.0943Z" fill="#5E12A0"/>
<path d="M22.8342 7.85127C12.5173 7.85127 4.26367 16.2843 4.26367 26.691C4.26367 37.0977 12.5173 45.5307 22.8342 45.5307C33.0615 45.5307 41.4048 37.0977 41.4048 26.691C41.4048 16.2843 32.9718 7.85127 22.8342 7.85127ZM22.8342 44.4541C13.1452 44.4541 5.34023 36.5594 5.34023 26.691C5.34023 16.8226 13.1452 8.83811 22.8342 8.83811C32.4335 8.83811 40.3282 16.8226 40.3282 26.691C40.3282 36.5594 32.4335 44.4541 22.8342 44.4541Z" fill="#5E12A0"/>
<path fill-rule="evenodd" clip-rule="evenodd" d="M39.2521 4.80132C41.7641 6.68529 43.1995 8.38983 43.648 10.0944C43.9172 11.0812 43.648 12.1578 43.0201 13.1446C42.3921 14.0417 41.4052 14.4903 40.239 14.4903C39.9666 14.4903 39.6943 14.4572 39.4219 14.4112C39.2457 14.3814 39.0695 14.3461 38.8933 14.3109C38.8589 14.4313 38.8244 14.5509 38.7903 14.6697L38.7902 14.67C38.7466 14.8215 38.7034 14.9717 38.6611 15.1205C38.6473 15.1688 38.6337 15.2169 38.6202 15.265C38.5154 15.6369 38.4171 16.0003 38.3332 16.3552C38.5998 16.7635 38.8512 17.183 39.0865 17.6126C39.1223 17.6781 39.1578 17.7438 39.1929 17.8097C39.21 17.8418 39.227 17.874 39.2439 17.9062C39.2896 17.9932 39.3347 18.0807 39.3791 18.1685C39.6375 18.68 39.8736 19.2049 40.0858 19.742C40.9357 21.8921 41.4048 24.2366 41.4048 26.691C41.4048 37.0977 33.0615 45.5307 22.8342 45.5307C12.5173 45.5307 4.26367 37.0977 4.26367 26.691C4.26367 16.2843 12.5173 7.85131 22.8342 7.85131C24.55 7.85131 26.2169 8.09287 27.8024 8.54469C27.8511 8.55856 27.8998 8.57264 27.9483 8.58691C28.0555 8.61844 28.1623 8.65092 28.2688 8.68436C28.3939 8.72366 28.5185 8.76429 28.6425 8.80621C28.8355 8.87144 29.0271 8.93982 29.2173 9.0113C29.2509 9.02393 29.2845 9.03666 29.318 9.04948C29.6283 8.88848 29.9865 8.69089 30.3879 8.45199C30.4071 8.44055 30.4264 8.42902 30.4458 8.41739C30.5094 8.37933 30.574 8.34024 30.6397 8.30012C30.5761 8.173 30.5126 8.05713 30.453 7.94853L30.453 7.94851C30.3444 7.75057 30.2491 7.57678 30.1911 7.40299C30.1645 7.3431 30.1404 7.27975 30.1187 7.21339C29.848 6.38509 29.9619 5.08697 30.4603 4.17333C30.9088 3.2762 31.5368 2.73792 32.3442 2.5585C32.7031 2.46879 32.9722 2.46879 33.3311 2.46879C35.0356 2.46879 37.1887 3.36591 39.2521 4.80132ZM31.8845 0.611947C32.4726 0.468234 32.9429 0.468541 33.2908 0.468768C33.3044 0.468777 33.3178 0.468786 33.3311 0.468786C35.6317 0.468786 38.1927 1.62798 40.3942 3.15951L40.4236 3.1799L40.4521 3.20132C43.0569 5.15489 44.952 7.20215 45.5801 9.57743C46.0385 11.2711 45.5293 12.9267 44.7074 14.2184L44.6838 14.2555L44.6585 14.2915C43.7012 15.6592 42.2654 16.3483 40.7398 16.4704C42.4338 19.4918 43.4048 22.9795 43.4048 26.691C43.4048 38.1772 34.191 47.5307 22.8342 47.5307C11.3815 47.5307 2.26367 38.1709 2.26367 26.691C2.26367 15.2111 11.3815 5.85131 22.8342 5.85131C24.6089 5.85131 26.3351 6.08346 27.984 6.51957C27.9695 6.23794 27.9751 5.96233 27.9952 5.70205C28.0564 4.9054 28.2689 4.02765 28.6869 3.24804C29.3391 1.96093 30.3895 0.953005 31.8845 0.611947ZM30.4626 10.707C29.6572 10.2909 28.8174 9.9355 27.9483 9.64581C27.957 9.64581 27.974 9.64247 27.9991 9.63555C27.9848 9.63102 27.9705 9.62652 27.9562 9.62203C27.9536 9.6212 27.9509 9.62037 27.9483 9.61954C27.8469 9.58775 27.7452 9.55688 27.643 9.52694C26.1129 9.07836 24.4992 8.83815 22.8342 8.83815C13.1452 8.83815 5.34023 16.8226 5.34023 26.691C5.34023 36.5594 13.1452 44.4541 22.8342 44.4541C32.4335 44.4541 40.3282 36.5594 40.3282 26.691C40.3282 25.679 40.2452 24.6869 40.0858 23.7211C39.759 21.7403 39.111 19.8705 38.1994 18.1685C38.1908 18.1523 38.182 18.1361 38.1733 18.1199C38.1444 18.0664 38.1153 18.013 38.0858 17.9598V18.1685C38.0189 18.048 37.9508 17.9284 37.8814 17.8097C37.8779 17.8037 37.8745 17.7977 37.871 17.7918C37.4381 17.0522 36.9593 16.3476 36.4386 15.6818C34.8134 13.6036 32.7804 11.9043 30.4626 10.707ZM27.3196 11.52C25.8959 11.0764 24.3892 10.8381 22.8342 10.8381C14.2893 10.8381 7.34023 17.8873 7.34023 26.691C7.34023 35.4815 14.2763 42.4541 22.8342 42.4541C31.3091 42.4541 38.3282 35.4748 38.3282 26.691C38.3282 24.4987 37.8915 22.4145 37.1047 20.5208L36.3375 19.1398C34.3268 15.5205 31.1265 12.8134 27.3158 11.5432L27.3196 11.52Z" fill="white"/>
<path d="M43.648 10.0943C43.1994 8.3898 41.764 6.68525 39.2521 4.80128C37.1887 3.36588 35.0356 2.46875 33.331 2.46875C32.9722 2.46875 32.703 2.46875 32.3442 2.55846C31.5368 2.73789 30.9088 3.27617 30.4602 4.17329C29.9219 5.16013 29.8322 6.59554 30.1911 7.40296C30.2808 7.67209 30.4602 7.94123 30.6396 8.30008C29.0248 9.28692 28.038 9.64578 27.9482 9.64578C32.2545 11.0812 35.843 14.1314 38.0858 18.1685V17.8096C38.1755 16.7331 38.5344 15.5668 38.8932 14.3108C39.3418 14.4006 39.7903 14.4903 40.2389 14.4903C41.4052 14.4903 42.392 14.0417 43.02 13.1446C43.648 12.1577 43.9171 11.0812 43.648 10.0943Z" fill="#5E12A0"/>
<path d="M39.0721 13.2341C41.9429 14.0415 43.1092 11.7987 42.6606 10.2735C42.2121 8.74842 40.9561 7.22331 38.6236 5.51876C36.291 3.81422 33.9585 3.09652 32.4334 3.45537C30.9083 3.81422 30.4597 6.05704 30.9083 6.95417C31.0877 7.31302 31.4465 7.8513 31.8951 8.38957C31.2671 8.83814 30.7288 9.10728 30.2803 9.37641C33.1511 10.7221 35.663 12.6958 37.547 15.2975C37.7264 14.4003 38.0853 13.6826 38.3544 12.9649C38.6236 13.1444 38.8927 13.1444 39.0721 13.2341Z" fill="url(#paint0_radial_17_10905)"/>
<path d="M22.8338 44.4539C32.5228 44.4539 40.3278 36.4694 40.3278 26.6907C40.3278 16.912 32.4331 8.83789 22.8338 8.83789C13.1449 8.83789 5.33984 16.8223 5.33984 26.6907C5.33984 36.5592 13.1449 44.4539 22.8338 44.4539Z" fill="url(#paint1_radial_17_10905)"/>
<path opacity="0.6" d="M41.3153 8.83882C38.893 6.32687 36.9193 5.60916 34.4971 5.07089C32.6131 4.62232 33.1514 3.54577 35.3942 3.72519C34.3177 3.36634 33.2411 3.27663 32.5234 3.36634C30.9983 3.72519 30.5497 5.96801 30.9983 6.86514C31.1777 7.22399 31.5366 7.76227 31.9851 8.30055C31.1777 8.83882 30.46 9.28739 29.832 9.64624C30.1012 9.73595 30.46 9.91538 30.9086 10.1845C31.9851 10.7228 33.1514 11.7096 33.1514 11.7096C31.3571 10.1845 31.8057 9.46681 34.228 7.76227C34.9457 7.22399 36.3811 7.31371 37.637 7.9417C38.893 8.56969 40.4181 10.2742 40.4181 10.2742L38.8033 13.2348C38.893 13.2348 38.9827 13.3245 39.0725 13.3245C39.9696 13.5936 40.6873 13.5039 41.2256 13.3245C41.9433 12.8759 43.6478 11.4405 41.3153 8.83882Z" fill="#A98698"/>
<path d="M34.4974 6.6856C35.1254 6.95474 35.9328 7.40331 36.9197 8.0313C38.0859 8.83871 39.1625 9.73584 39.7905 10.4535C38.7139 11.8889 37.9962 13.9523 37.5477 15.298C37.7271 15.6569 37.9962 15.926 38.2654 16.2849C38.4448 15.4775 38.8933 14.3112 39.3419 13.1449C39.4316 13.1449 39.611 13.1449 39.7905 13.1449C40.1493 13.1449 40.5979 13.0552 40.9567 12.7861C41.2259 12.6067 41.495 12.2478 41.495 11.6198C41.495 10.9918 41.0465 10.2741 40.0596 9.28728C39.3419 8.65929 38.3551 7.85187 37.4579 7.22388C34.7666 5.42963 32.8826 4.89135 32.0752 5.78848C31.5369 6.32675 31.5369 7.04446 31.806 7.58273C30.8192 8.21072 29.9221 8.749 29.3838 9.01814C29.7426 9.10785 30.1015 9.28728 30.4603 9.4667C31.3575 8.92843 32.7929 7.94158 34.4974 6.6856ZM40.4185 11.1712C40.5082 11.3507 40.5082 11.5301 40.5082 11.6198C40.5082 11.8889 40.4185 11.9787 40.3288 12.0684C40.239 12.1581 39.9699 12.2478 39.7008 12.2478C39.9699 11.7992 40.1493 11.5301 40.4185 11.1712ZM32.7032 6.41647C32.7929 6.32675 33.062 6.23704 33.4209 6.32675C33.1517 6.59589 32.7929 6.77532 32.5237 7.04446C32.434 6.86503 32.434 6.59589 32.7032 6.41647Z" fill="#5E12A0"/>
<path d="M22.8342 7.85156C12.5173 7.85156 4.26367 16.2846 4.26367 26.6913C4.26367 37.0979 12.5173 45.5309 22.8342 45.5309C33.0615 45.5309 41.4048 37.0979 41.4048 26.6913C41.4048 16.2846 32.9718 7.85156 22.8342 7.85156ZM22.8342 44.4544C13.1452 44.4544 5.34023 36.5597 5.34023 26.6913C5.34023 16.8228 13.1452 8.8384 22.8342 8.8384C32.4335 8.8384 40.3282 16.8228 40.3282 26.6913C40.3282 36.5597 32.4335 44.4544 22.8342 44.4544Z" fill="#5E12A0"/>
<path opacity="0.6" d="M22.8338 44.4539C32.5228 44.4539 40.3278 36.4694 40.3278 26.6907C40.3278 16.912 32.4331 8.83789 22.8338 8.83789C13.1449 8.83789 5.33984 16.8223 5.33984 26.6907C5.33984 36.5592 13.1449 44.4539 22.8338 44.4539Z" fill="url(#paint2_linear_17_10905)"/>
<path opacity="0.6" d="M22.655 42.3025C13.1455 40.7774 6.68613 31.6267 8.21125 21.9377C8.92895 17.6315 10.9923 13.9532 14.0426 11.3516C9.64665 13.9532 6.41699 18.4389 5.51986 23.9114C3.99474 33.6003 10.4541 42.7511 19.9636 44.3659C25.2567 45.263 30.46 43.5585 34.228 40.2391C30.9086 42.1231 26.7818 43.0202 22.655 42.3025Z" fill="#A98698"/>
<path opacity="0.6" d="M25.6149 9.10797C21.219 8.39026 16.9128 9.3771 13.414 11.6199C13.3243 11.7096 13.3243 11.7096 13.3243 11.7096C14.67 10.9022 16.6436 10.1845 16.6436 10.1845C11.53 13.145 10.0049 16.5541 10.0049 16.5541C11.8889 12.7862 17.7202 10.0051 22.2058 9.82567C26.7812 9.64624 29.7417 10.9919 33.3302 13.9525C36.9187 16.913 39.1615 23.1032 38.8924 27.9477C38.713 32.7922 36.201 36.7395 36.201 36.7395C37.9056 34.4967 38.9821 32.7922 39.6101 31.1773C39.6998 30.639 39.8793 30.1905 39.8793 29.6522C41.5838 19.7838 35.1245 10.7228 25.6149 9.10797Z" fill="url(#paint3_linear_17_10905)"/>
<path d="M39.4309 26.5117C39.4309 35.8419 31.9848 43.4674 22.834 43.4674C13.6833 43.4674 6.14746 35.8419 6.14746 26.5117H39.4309Z" fill="url(#paint4_linear_17_10905)"/>
<g opacity="0.6">
<path opacity="0.6" d="M38.0861 26.5117C38.0861 35.6624 30.9988 43.1086 22.1172 43.4674C22.2966 43.4674 22.5658 43.4674 22.7452 43.4674C31.8959 43.4674 39.342 35.9316 39.342 26.5117H38.0861Z" fill="url(#paint5_linear_17_10905)"/>
</g>
<g opacity="0.7">
<path opacity="0.7" d="M8.47999 26.5117H6.14746C6.14746 35.8419 13.5936 43.4674 22.7443 43.4674C23.1929 43.4674 23.5517 43.4674 23.9106 43.4674C15.2982 42.7497 8.47999 35.3933 8.47999 26.5117Z" fill="url(#paint6_linear_17_10905)"/>
</g>
<path d="M39.4309 26.691C39.4309 24.7173 36.1115 23.6408 31.7156 23.2819C28.486 23.0128 25.2563 23.3716 21.5781 24.4482C18.3484 25.435 15.4776 25.2556 13.4142 24.9865C8.74913 24.4482 6.14746 24.3585 6.14746 26.691C6.14746 30.0104 12.7862 34.1372 22.7443 32.7018C27.7683 31.9841 30.3699 30.459 33.3304 29.4721C36.5601 28.3956 39.4309 28.3956 39.4309 26.691Z" fill="url(#paint7_linear_17_10905)"/>
<path d="M28.2157 18.6166C29.7408 18.6166 30.9968 17.3606 30.9968 15.7458C30.9968 14.131 29.7408 12.875 28.2157 12.875C26.6906 12.875 25.4346 14.131 25.4346 15.7458C25.4346 17.3606 26.6906 18.6166 28.2157 18.6166Z" fill="white"/>
<path d="M32.8821 20.77C33.5101 20.77 34.0484 20.2318 34.0484 19.6038C34.0484 18.9758 33.5101 18.4375 32.8821 18.4375C32.2541 18.4375 31.7158 18.9758 31.7158 19.6038C31.7158 20.2318 32.1644 20.77 32.8821 20.77Z" fill="white"/>
<g opacity="0.6">
<path opacity="0.6" d="M37.0981 13.5026C37.0981 13.5026 37.0084 13.5026 37.0981 13.5026C36.829 13.5026 36.7393 13.3232 36.7393 13.0541C37.0084 11.6187 38.1747 10.1833 38.2644 10.0936C38.3541 9.91413 38.6232 9.91413 38.8027 10.0936C38.9821 10.1833 38.9821 10.4524 38.8027 10.6318C38.8027 10.6318 37.6364 11.9775 37.457 13.2335C37.457 13.4129 37.2775 13.5026 37.0981 13.5026Z" fill="url(#paint8_linear_17_10905)"/>
</g>
<path opacity="0.2" d="M21.6676 39.9681C22.1162 39.9681 22.5648 39.6092 22.5648 39.071C22.5648 38.5327 22.2059 38.1738 21.6676 38.1738C21.1294 38.1738 20.7705 38.5327 20.7705 39.071C20.7705 39.6092 21.1294 39.9681 21.6676 39.9681Z" fill="white"/>
<g opacity="0.4">
<path opacity="0.6" d="M21.1294 39.6092C20.7705 39.2504 20.7705 38.7121 21.1294 38.3533C21.2191 38.2635 21.2191 38.2635 21.3088 38.1738C21.2191 38.1738 21.1294 38.2635 21.0396 38.3533C20.6808 38.7121 20.6808 39.2504 21.0396 39.6092C21.3088 39.8784 21.7573 39.9681 22.1162 39.7887C21.7573 39.9681 21.3985 39.8784 21.1294 39.6092Z" fill="url(#paint9_linear_17_10905)"/>
</g>
<path opacity="0.3" d="M21.9372 38.8022C22.027 38.8022 22.1167 38.7125 22.1167 38.6228C22.1167 38.5331 22.027 38.4434 21.9372 38.4434C21.8475 38.4434 21.7578 38.5331 21.7578 38.6228C21.7578 38.7125 21.8475 38.8022 21.9372 38.8022Z" fill="white"/>
<path opacity="0.2" d="M26.2438 39.5198C26.6924 39.5198 27.1409 39.161 27.1409 38.6227C27.1409 38.1742 26.7821 37.7256 26.2438 37.7256C25.7952 37.7256 25.3467 38.0844 25.3467 38.6227C25.3467 39.0713 25.7055 39.5198 26.2438 39.5198Z" fill="white"/>
<g opacity="0.4">
<path opacity="0.6" d="M25.7046 39.161C25.3457 38.8021 25.3457 38.2639 25.7046 37.905C25.7943 37.8153 25.7943 37.8153 25.884 37.7256C25.7943 37.7256 25.7046 37.8153 25.6148 37.905C25.256 38.2639 25.256 38.8021 25.6148 39.161C25.884 39.4301 26.3325 39.5198 26.6914 39.3404C26.3325 39.5198 25.9737 39.4301 25.7046 39.161Z" fill="url(#paint10_linear_17_10905)"/>
</g>
<path opacity="0.3" d="M26.5124 38.354C26.6021 38.354 26.6919 38.2643 26.6919 38.1745C26.6919 38.0848 26.6021 37.9951 26.5124 37.9951C26.4227 37.9951 26.333 38.0848 26.333 38.1745C26.333 38.2643 26.4227 38.354 26.5124 38.354Z" fill="white"/>
<path opacity="0.2" d="M24.0001 41.5841C24.3589 41.5841 24.6281 41.315 24.6281 40.9561C24.6281 40.5973 24.3589 40.3281 24.0001 40.3281C23.6412 40.3281 23.3721 40.5973 23.3721 40.9561C23.3721 41.315 23.5515 41.5841 24.0001 41.5841Z" fill="white"/>
<g opacity="0.4">
<path opacity="0.6" d="M23.5513 41.3148C23.2822 41.0457 23.2822 40.5971 23.5513 40.328L23.641 40.2383C23.5513 40.2383 23.4616 40.328 23.4616 40.4177C23.1925 40.6868 23.1925 41.1354 23.4616 41.4046C23.641 41.584 23.9999 41.6737 24.269 41.4943C24.0896 41.584 23.7308 41.4943 23.5513 41.3148Z" fill="url(#paint11_linear_17_10905)"/>
</g>
<path opacity="0.3" d="M24.1796 40.6863C24.2693 40.6863 24.2693 40.5965 24.2693 40.5965C24.2693 40.5068 24.1796 40.5068 24.1796 40.5068C24.0898 40.5068 24.0898 40.5965 24.0898 40.5965C24.0898 40.5965 24.0898 40.6863 24.1796 40.6863Z" fill="white"/>
<path opacity="0.2" d="M28.0365 41.1349C28.3953 41.1349 28.6645 40.8657 28.6645 40.5069C28.6645 40.148 28.3953 39.8789 28.0365 39.8789C27.6776 39.8789 27.4085 40.148 27.4085 40.5069C27.3188 40.776 27.6776 41.1349 28.0365 41.1349Z" fill="white"/>
<g opacity="0.4">
<path opacity="0.6" d="M27.5884 40.8656C27.3193 40.5965 27.3193 40.1479 27.5884 39.8788L27.6782 39.7891C27.5884 39.7891 27.4987 39.8788 27.4987 39.9685C27.2296 40.2376 27.2296 40.6862 27.4987 40.9553C27.6782 41.1348 28.037 41.2245 28.3061 41.045C28.1267 41.1348 27.7679 41.045 27.5884 40.8656Z" fill="url(#paint12_linear_17_10905)"/>
</g>
<path opacity="0.3" d="M28.2167 40.238C28.3064 40.238 28.3064 40.1483 28.3064 40.1483C28.3064 40.0586 28.2167 40.0586 28.2167 40.0586C28.127 40.0586 28.127 40.1483 28.127 40.1483C28.127 40.1483 28.127 40.238 28.2167 40.238Z" fill="white"/>
<path opacity="0.2" d="M17.8993 39.6101C18.7067 39.6101 19.3347 38.9821 19.3347 38.1747C19.3347 37.3672 18.7067 36.7393 17.8993 36.7393C17.0919 36.7393 16.4639 37.3672 16.4639 38.1747C16.4639 38.9821 17.0919 39.6101 17.8993 39.6101Z" fill="white"/>
<g opacity="0.4">
<path opacity="0.6" d="M17.0918 39.0709C16.5535 38.5327 16.5535 37.5458 17.0918 37.0076C17.1815 36.9178 17.2712 36.8281 17.3609 36.8281C17.1815 36.9178 17.0021 37.0076 16.8227 37.187C16.2844 37.7253 16.2844 38.7121 16.8227 39.2504C17.2712 39.6989 17.9889 39.7886 18.6169 39.4298C18.1683 39.6092 17.5404 39.5195 17.0918 39.0709Z" fill="url(#paint13_linear_17_10905)"/>
</g>
<path opacity="0.3" d="M18.4381 37.7255C18.6175 37.7255 18.7072 37.5461 18.7072 37.3667C18.7072 37.1872 18.5278 37.0078 18.4381 37.0078C18.2587 37.0078 18.1689 37.1872 18.1689 37.3667C18.1689 37.5461 18.2587 37.7255 18.4381 37.7255Z" fill="white"/>
<path opacity="0.2" d="M30.8192 36.0212C31.6266 36.0212 32.2546 35.3932 32.2546 34.5858C32.2546 33.7784 31.6266 33.1504 30.8192 33.1504C30.0118 33.1504 29.3838 33.7784 29.3838 34.5858C29.3838 35.3932 30.0118 36.0212 30.8192 36.0212Z" fill="white"/>
<g opacity="0.4">
<path opacity="0.6" d="M29.9209 35.4831C29.3826 34.9448 29.3826 33.9579 29.9209 33.4197C30.0106 33.3299 30.1003 33.2402 30.19 33.2402C30.0106 33.3299 29.8312 33.4197 29.6518 33.5991C29.1135 34.1374 29.1135 35.1242 29.6518 35.6625C30.1003 36.111 30.818 36.2008 31.446 35.8419C30.9974 36.0213 30.3695 35.9316 29.9209 35.4831Z" fill="url(#paint14_linear_17_10905)"/>
</g>
<path opacity="0.3" d="M31.2672 34.1376C31.4466 34.1376 31.5363 33.9582 31.5363 33.7788C31.5363 33.5993 31.3569 33.4199 31.2672 33.4199C31.0878 33.4199 30.998 33.5993 30.998 33.7788C30.998 33.9582 31.0878 34.1376 31.2672 34.1376Z" fill="white"/>
<defs>
<radialGradient id="paint0_radial_17_10905" cx="0" cy="0" r="1" gradientUnits="userSpaceOnUse" gradientTransform="translate(42.1747 8.329) scale(13.9945 14.2355)">
<stop stop-color="#FFEAFF" stop-opacity="0.6"/>
<stop offset="0.6807" stop-color="#A087C9"/>
<stop offset="1" stop-color="#10002F"/>
</radialGradient>
<radialGradient id="paint1_radial_17_10905" cx="0" cy="0" r="1" gradientUnits="userSpaceOnUse" gradientTransform="translate(34.388 14.3981) scale(34.2395 34.8291)">
<stop stop-color="#FFEAFF" stop-opacity="0.6"/>
<stop offset="0.6807" stop-color="#A087C9"/>
<stop offset="1" stop-color="#10002F"/>
</radialGradient>
<linearGradient id="paint2_linear_17_10905" x1="19.904" y1="44.2371" x2="25.6954" y2="9.11277" gradientUnits="userSpaceOnUse">
<stop stop-color="#81FFFF"/>
<stop offset="0.6202" stop-color="white" stop-opacity="0"/>
</linearGradient>
<linearGradient id="paint3_linear_17_10905" x1="35.2847" y1="14.7501" x2="20.5856" y2="28.0086" gradientUnits="userSpaceOnUse">
<stop offset="0.2888" stop-color="white"/>
<stop offset="0.7796" stop-color="white" stop-opacity="0"/>
</linearGradient>
<linearGradient id="paint4_linear_17_10905" x1="6.14217" y1="34.9724" x2="39.4264" y2="34.9724" gradientUnits="userSpaceOnUse">
<stop stop-color="#0002E9"/>
<stop offset="0.9952" stop-color="#FF00C7"/>
</linearGradient>
<linearGradient id="paint5_linear_17_10905" x1="41.0815" y1="28.0943" x2="22.6858" y2="45.1852" gradientUnits="userSpaceOnUse">
<stop offset="0.2888" stop-color="white"/>
<stop offset="0.7796" stop-color="white" stop-opacity="0"/>
</linearGradient>
<linearGradient id="paint6_linear_17_10905" x1="6.14217" y1="34.9724" x2="23.9272" y2="34.9724" gradientUnits="userSpaceOnUse">
<stop stop-color="#000292"/>
<stop offset="0.9952" stop-color="#7D00C7"/>
</linearGradient>
<linearGradient id="paint7_linear_17_10905" x1="6.17859" y1="28.0697" x2="39.396" y2="28.0697" gradientUnits="userSpaceOnUse">
<stop stop-color="#000292"/>
<stop offset="0.9952" stop-color="#BE00C7"/>
</linearGradient>
<linearGradient id="paint8_linear_17_10905" x1="38.8923" y1="9.98312" x2="36.4454" y2="13.8922" gradientUnits="userSpaceOnUse">
<stop offset="0.2888" stop-color="white"/>
<stop offset="0.7796" stop-color="white" stop-opacity="0"/>
</linearGradient>
<linearGradient id="paint9_linear_17_10905" x1="20.7568" y1="39.0724" x2="22.0815" y2="39.0724" gradientUnits="userSpaceOnUse">
<stop offset="0.2888" stop-color="white"/>
<stop offset="0.7796" stop-color="white" stop-opacity="0"/>
</linearGradient>
<linearGradient id="paint10_linear_17_10905" x1="25.324" y1="38.6264" x2="26.6488" y2="38.6264" gradientUnits="userSpaceOnUse">
<stop offset="0.2888" stop-color="white"/>
<stop offset="0.7796" stop-color="white" stop-opacity="0"/>
</linearGradient>
<linearGradient id="paint11_linear_17_10905" x1="23.2965" y1="40.9319" x2="24.291" y2="40.9319" gradientUnits="userSpaceOnUse">
<stop offset="0.2888" stop-color="white"/>
<stop offset="0.7796" stop-color="white" stop-opacity="0"/>
</linearGradient>
<linearGradient id="paint12_linear_17_10905" x1="27.3221" y1="40.4533" x2="28.3166" y2="40.4533" gradientUnits="userSpaceOnUse">
<stop offset="0.2888" stop-color="white"/>
<stop offset="0.7796" stop-color="white" stop-opacity="0"/>
</linearGradient>
<linearGradient id="paint13_linear_17_10905" x1="16.4765" y1="38.2141" x2="18.6399" y2="38.2141" gradientUnits="userSpaceOnUse">
<stop offset="0.2888" stop-color="white"/>
<stop offset="0.7796" stop-color="white" stop-opacity="0"/>
</linearGradient>
<linearGradient id="paint14_linear_17_10905" x1="29.3256" y1="34.6157" x2="31.4891" y2="34.6157" gradientUnits="userSpaceOnUse">
<stop offset="0.2888" stop-color="white"/>
<stop offset="0.7796" stop-color="white" stop-opacity="0"/>
</linearGradient>
</defs>
</svg>
