<svg xmlns="http://www.w3.org/2000/svg" viewBox="0 0 80 80">
  <path fill="#fff" d="M40 78.588A38.588 38.588 0 1 0 1.412 40 38.587 38.587 0 0 0 40 78.588Z"/>
  <path fill="#1b1b1b" d="M40 0a40 40 0 1 0 40 40A40.045 40.045 0 0 0 40 0Zm0 77.178A37.177 37.177 0 1 1 77.178 40 37.22 37.22 0 0 1 40 77.178Z"/>
  <path fill="#1b1b1b" d="M44.633 35.74c-5.732-2.746-10.68-5.116-10.219-10.417.325-3.638 5.129-5.218 8.462-4.946 4.843.34 8.706 2.492 12.52 6.981l2.15-1.829c-4.345-5.114-8.808-7.571-14.46-7.969a13.165 13.165 0 0 0-1.895 0 19.172 19.172 0 0 0-13 4.711 10.965 10.965 0 0 0-3.759 7.758c-.3 8.924 6.928 12.053 13.307 14.814 5.652 2.446 10.533 4.558 10.363 10.013A3.8 3.8 0 0 1 46.8 57.6c-1.822 1.736-5.16 2.568-7.516 2.52-5.336-.189-10.1-2.547-14.159-7.013l-2.09 1.9c4.591 5.049 10.025 7.719 16.162 7.935.206.006.414.01.624.01 7.232 0 17.229-3.487 17.953-11.576.787-8.965-6.613-12.509-13.141-15.636Zm10.328 15.389c-.24 2.693-2.079 4.779-4.6 6.261a6.314 6.314 0 0 0 .562-2.457c.23-7.361-6.019-10.066-12.063-12.681-6.091-2.636-11.844-5.126-11.608-12.133a8.322 8.322 0 0 1 2.859-5.778 13.28 13.28 0 0 1 2.089-1.555 7.159 7.159 0 0 0-.6 2.289c-.633 7.25 5.694 10.281 11.812 13.211 6.258 2.997 12.166 5.827 11.549 12.843Z"/>
</svg>
