<svg width="47" height="46" viewBox="0 0 47 46" fill="none" xmlns="http://www.w3.org/2000/svg">
<mask id="mask0_38_210795" style="mask-type:alpha" maskUnits="userSpaceOnUse" x="0" y="0" width="47" height="46">
<path fill-rule="evenodd" clip-rule="evenodd" d="M0.922852 0.128906H46.9336V45.6447H0.922852V0.128906Z" fill="white"/>
</mask>
<g mask="url(#mask0_38_210795)">
<path fill-rule="evenodd" clip-rule="evenodd" d="M46.9339 22.887C46.9339 35.4558 36.6339 45.6449 23.9284 45.6449C11.2228 45.6449 0.922852 35.4558 0.922852 22.887C0.922852 10.3182 11.2228 0.12793 23.9284 0.12793C36.6339 0.12793 46.9339 10.3182 46.9339 22.887Z" fill="white"/>
</g>
<path fill-rule="evenodd" clip-rule="evenodd" d="M20.9567 34.451C22.1212 38.7113 26.2971 41.9631 28.4068 41.8278C28.481 41.8232 36.4073 40.3611 40.747 33.1894C44.1237 27.6081 42.9746 22.2203 38.3815 22.1025C36.729 22.2215 18.7386 26.3337 20.9567 34.451Z" fill="#0E3CA5"/>
<path fill-rule="evenodd" clip-rule="evenodd" d="M33.7525 41.4786C31.9127 42.3286 29.889 41.7095 30.4146 39.9384C31.4247 36.5362 40.2443 33.0477 42.1914 32.8577C42.4319 32.8344 42.5344 32.9976 42.4272 33.1818C40.3964 36.7006 37.3897 39.5991 33.7525 41.4786Z" fill="#5493F7"/>
<path fill-rule="evenodd" clip-rule="evenodd" d="M37.9536 7.08435C37.9524 7.08319 37.95 7.08202 37.9489 7.08086L37.9548 7.07736C34.4378 4.11122 29.8753 2.32617 24.8909 2.32617C21.9774 2.32617 19.2111 2.94412 16.7101 4.04476C16.2611 4.23131 15.8344 4.43651 15.4325 4.66271C15.1496 4.81195 14.8667 4.96119 14.5921 5.12208L14.6593 5.14191C13.8296 5.70855 13.1165 6.3708 12.5319 7.13449C6.74605 14.6956 26.1379 20.1918 36.5051 20.2105C41.2749 23.5963 42.6138 10.6731 37.9536 7.08435Z" fill="#0E3CA5"/>
<path fill-rule="evenodd" clip-rule="evenodd" d="M15.6934 35.2311C15.8844 36.4751 15.6887 41.3907 15.4318 41.8058C15.209 41.8186 14.7482 41.8466 13.4104 41.1051C12.708 40.7075 12.0314 40.2726 11.382 39.8015C10.5028 39.1649 9.67538 38.4619 8.90574 37.7005C8.13728 36.9403 7.42657 36.1218 6.78186 35.2521C6.13833 34.3823 5.55963 33.4612 5.05518 32.4981C4.54955 31.5339 4.11818 30.5265 3.76577 29.4818C3.41572 28.4383 3.14464 27.3575 2.96077 26.2487C2.77809 25.1387 2.68262 23.9996 2.68262 22.8395C2.68262 21.6782 2.77809 20.5391 2.96077 19.4303C3.14464 18.3203 3.41572 17.2395 3.76577 16.1972C3.83767 15.985 3.91192 15.7751 3.98971 15.5676L3.99089 15.5664C5.52309 17.5811 7.29456 19.4047 8.80084 21.4404C10.2364 23.3782 12.2094 26.5367 12.6113 27.2118C15.1053 31.4033 15.5025 33.9882 15.6934 35.2311Z" fill="#5493F7"/>
<path fill-rule="evenodd" clip-rule="evenodd" d="M17.8782 7.23777C15.2157 11.1985 6.34063 13.9897 4.88268 13.5548C4.87914 13.549 4.87561 13.542 4.87207 13.5362C4.93218 13.4172 4.99229 13.2983 5.05476 13.1805C5.55921 12.2175 6.13791 11.2952 6.78262 10.4266C7.42732 9.55682 8.13685 8.73833 8.90649 7.97814C9.67495 7.21679 10.5035 6.51489 11.3816 5.87713C11.9285 5.48071 12.4942 5.11111 13.0776 4.76716C14.3199 4.05594 15.5928 4.00813 16.0112 3.99414C19.9631 4.06759 17.8994 7.20629 17.8782 7.23777Z" fill="#5493F7"/>
<path fill-rule="evenodd" clip-rule="evenodd" d="M45.1732 22.839C45.1732 25.5638 44.6487 28.1685 43.6952 30.5587C41.193 33.2181 24.321 26.6691 24.1548 26.598C21.8471 25.5976 14.8237 22.5545 14.1896 17.7718C13.2785 10.894 27.3854 6.10083 33.585 5.91895C34.3275 5.92711 36.5905 5.95392 37.9093 7.01376C42.361 10.8648 45.1732 16.5278 45.1732 22.839Z" fill="#5493F7"/>
</svg>
