<?xml version="1.0" encoding="UTF-8"?><svg xmlns="http://www.w3.org/2000/svg" viewBox="0 0 56.03 64.45"><defs><style>.d{fill:#fff;}.e{fill:#0e3ca5;}.f{fill:#6390ef;}</style></defs><g id="a"/><g id="b"><g id="c"><g><path class="f" d="M55.42,30.6c-.41-2.67-2.63-12.03-14.32-19.35C34.26,6.95,30.25,5.84,28.37,.48c-.14-.41-.62-.6-1-.4-.82,.42-2.12,1.37-3.01,3.41-.44,1.02-.86,3.19-.41,5.22h0c.08,.35,.16,.91,.17,1.29,.06,1.3-.73,3.44-3.37,3.62-2.96,.2-2.9-1.6-4.7-3.13-.27-.23-.67-.16-.86,.14-.67,1.1-1.61,1.78-2.06,2.07C5.24,17.65,0,26.43,0,36.43c0,15.51,12.46,27.99,27.97,28.02,15.5,.03,28.07-12.53,28.07-28.02,0-2-.21-3.95-.61-5.83Z"/><g><path class="e" d="M25.42,47.5c1.02,3.77,4.67,6.65,6.52,6.53,.06,0,7-1.3,10.8-7.64,2.96-4.94,1.95-9.71-2.07-9.81-1.45,.11-17.19,3.74-15.25,10.93"/><path class="e" d="M40.29,23.28h0c-3.08-2.63-7.07-4.21-11.44-4.21-2.55,0-4.97,.55-7.16,1.52-.39,.17-.77,.35-1.12,.55-.25,.13-.5,.26-.74,.41l.06,.02c-.73,.5-1.35,1.09-1.86,1.76-5.06,6.69,11.91,11.55,20.98,11.57,4.17,3,5.35-8.44,1.27-11.61Z"/></g><g><path class="d" d="M22.72,23.42c-2.33,3.5-10.1,5.97-11.38,5.59v-.02c.04-.11,.1-.21,.15-.32,.44-.85,.95-1.67,1.51-2.44s1.19-1.49,1.86-2.17,1.4-1.29,2.17-1.86c.48-.35,.97-.68,1.48-.98,1.09-.63,2.2-.67,2.57-.68,3.46,.07,1.65,2.84,1.63,2.87"/><path class="d" d="M20.81,48.19c.17,1.1,0,5.45-.23,5.82-.19,.01-.6,.04-1.77-.62-.61-.35-1.21-.74-1.78-1.15-.77-.56-1.49-1.19-2.17-1.86s-1.29-1.4-1.86-2.17c-.56-.77-1.07-1.58-1.51-2.44-.44-.85-.82-1.74-1.13-2.67-.31-.92-.54-1.88-.7-2.86s-.24-1.99-.24-3.02,.08-2.03,.24-3.02,.4-1.94,.7-2.86c.06-.19,.13-.37,.2-.56h0c1.34,1.78,2.89,3.4,4.21,5.2,1.26,1.71,2.98,4.51,3.33,5.11,2.18,3.71,2.53,6,2.7,7.09"/><path class="d" d="M46.61,37.22c0,2.41-.46,4.72-1.29,6.83-2.19,2.35-16.96-3.44-17.1-3.5-2.02-.88-8.17-3.58-8.72-7.81-.8-6.09,11.55-10.33,16.98-10.49,.65,0,2.63,.03,3.78,.97,3.9,3.41,6.36,8.42,6.36,14"/><path class="d" d="M36.62,53.72c-1.61,.75-3.38,.2-2.92-1.36,.88-3.01,8.6-6.1,10.31-6.26,.21-.02,.3,.12,.21,.29-1.78,3.11-4.41,5.68-7.59,7.34"/></g></g></g></g></svg>