<svg width="100" height="102" viewBox="0 0 100 102" fill="none" xmlns="http://www.w3.org/2000/svg">
<g clip-path="url(#clip0_5_2)">
<rect width="165.648" height="21.211" transform="matrix(0.700071 0.714073 -0.700071 0.714073 11.8492 -29.58)" fill="#E47B48"/>
<path d="M44.4724 25.8366L45.3422 26.7064L49.4858 22.5627L51.0627 24.1396L51.8688 23.3335L47.8453 19.31L47.0392 20.1161L48.6161 21.693L44.4724 25.8366ZM47.7103 29.0745L51.4156 32.7798L52.1934 32.0019L49.3579 29.1664L50.6802 27.8441L53.1621 30.3261L53.947 29.5412L51.4651 27.0593L52.752 25.7723L55.5521 28.5725L56.33 27.7947L52.6601 24.1248L47.7103 29.0745ZM53.9986 35.5042C55.0381 36.5437 56.3179 36.7204 57.2442 35.7941L57.2584 35.78C58.0786 34.9597 57.916 34.0476 57.124 32.7465C56.3957 31.5656 56.3391 31.1696 56.721 30.7878L56.7351 30.7737C57.0604 30.4484 57.619 30.4838 58.1281 30.9929C58.5807 31.4454 58.8494 32.0677 58.9625 32.8455L60.0868 32.6546C59.9878 31.7495 59.6343 30.9575 58.913 30.2363C57.9301 29.2534 56.6361 29.1332 55.7876 29.9817L55.7734 29.9959C54.8613 30.908 55.1441 31.8131 55.9432 33.1213C56.6503 34.2526 56.6573 34.6415 56.3038 34.9951L56.2896 35.0092C55.9219 35.3769 55.328 35.2921 54.7906 34.7547C54.1825 34.1466 53.935 33.4324 53.8713 32.5485L52.7258 32.6475C52.7895 33.7718 53.242 34.7476 53.9986 35.5042ZM57.8619 39.2261L58.7316 40.0958L62.8753 35.9522L64.4521 37.529L65.2582 36.7229L61.2348 32.6995L60.4287 33.5056L62.0055 35.0824L57.8619 39.2261ZM61.0998 42.464L61.9554 43.3196L65.4768 39.7982L64.6848 46.049L65.4131 46.7773L70.3629 41.8276L69.5073 40.972L66.0849 44.3944L66.8556 38.3203L66.0495 37.5142L61.0998 42.464ZM66.5757 47.9399L70.281 51.6451L71.0588 50.8673L68.2233 48.0318L69.5456 46.7095L72.0275 49.1915L72.8124 48.4066L70.3305 45.9246L71.6174 44.6377L74.4175 47.4379L75.1954 46.66L71.5255 42.9902L66.5757 47.9399ZM72.4045 53.7687L73.2743 54.6385L77.4179 50.4948L78.9948 52.0717L79.8009 51.2656L75.7774 47.2421L74.9713 48.0482L76.5482 49.6251L72.4045 53.7687Z" fill="white"/>
</g>
<defs>
<clipPath id="clip0_5_2">
<rect width="100" height="102" fill="white"/>
</clipPath>
</defs>
</svg>
