<svg width="48" height="47" viewBox="0 0 48 47" fill="none" xmlns="http://www.w3.org/2000/svg">
<path d="M38.1734 13.8615C30.3457 6.04617 17.6544 6.04617 9.82659 13.8615L8.79256 14.8939C8.40118 15.2846 8.40118 15.9182 8.79256 16.3089L12.0152 19.5265C12.2109 19.7219 12.5282 19.7219 12.7239 19.5265L14.1123 18.1403C19.5731 12.6882 28.4269 12.6882 33.8878 18.1403L35.1842 19.4347C35.3799 19.6301 35.6972 19.6301 35.8928 19.4347L39.1155 16.2171C39.5069 15.8264 39.5069 15.1928 39.1155 14.8021L38.1734 13.8615Z" fill="#3B99FC"/>
<path d="M47.7065 23.3792L44.8383 20.5155C44.4469 20.1248 43.8123 20.1248 43.4209 20.5155L34.242 29.6799C34.1441 29.7776 33.9855 29.7776 33.8876 29.6799L24.7085 20.5154C24.3171 20.1246 23.6826 20.1246 23.2912 20.5154L14.1125 29.6799C14.0147 29.7776 13.856 29.7776 13.7582 29.6799L4.57908 20.5154C4.1877 20.1246 3.55313 20.1246 3.16174 20.5154L0.293541 23.379C-0.0978471 23.7698 -0.0978471 24.4033 0.293541 24.7941L13.2268 37.7068C13.6182 38.0975 14.2528 38.0975 14.6441 37.7068L23.8229 28.5424C23.9208 28.4447 24.0794 28.4447 24.1773 28.5424L33.3562 37.7068C33.7476 38.0975 34.3822 38.0975 34.7736 37.7068L47.7065 24.7943C48.0978 24.4035 48.0978 23.7699 47.7065 23.3792Z" fill="#3B99FC"/>
</svg>
