<svg width="17" height="13" viewBox="0 0 17 13" fill="none" xmlns="http://www.w3.org/2000/svg">
<path fill-rule="evenodd" clip-rule="evenodd" d="M7.6543 0.75507C8.04672 0.133727 8.95285 0.133727 9.34528 0.755069L16.0309 11.3407C16.4515 12.0066 15.973 12.8747 15.1855 12.8747H8.49979H1.81411C1.02656 12.8747 0.548075 12.0066 0.968624 11.3407L7.6543 0.75507ZM9.34923 5.36905C9.34923 4.94023 8.99246 4.59261 8.55236 4.59261C8.11226 4.59261 7.75548 4.94023 7.75548 5.36905V7.95719C7.75548 8.38601 8.11226 8.73363 8.55236 8.73363C8.99246 8.73363 9.34923 8.38601 9.34923 7.95719V5.36905ZM9.11655 9.8451C8.9678 9.70017 8.76486 9.61735 8.55236 9.61735C8.44717 9.61735 8.35155 9.63805 8.24423 9.67946C8.14861 9.72087 8.06361 9.77264 7.98923 9.8451C7.91592 9.91757 7.86279 10.0004 7.82029 10.0936C7.77779 10.1867 7.75548 10.2903 7.75548 10.3938C7.75548 10.4973 7.77779 10.5905 7.82029 10.694C7.86279 10.7872 7.91592 10.87 7.98923 10.9425C8.06361 11.0149 8.14861 11.0667 8.24423 11.1081C8.44717 11.1909 8.6703 11.1909 8.86048 11.1081C8.95611 11.0667 9.04111 11.0149 9.11655 10.9425C9.19092 10.87 9.25361 10.7872 9.28655 10.694C9.32905 10.5905 9.34923 10.4973 9.34923 10.3938C9.34923 10.1867 9.26423 9.99004 9.11655 9.8451Z" fill="#EDA34D"/>
</svg>
